<svg width="46" height="47" viewBox="0 0 46 47" fill="none" xmlns="http://www.w3.org/2000/svg">
<g clip-path="url(#clip0_1_187)">
<path d="M43.0763 18.7123H42.9788V11.6272C42.9663 10.0016 41.6513 8.6867 40.0258 8.67413H6.07169C4.44613 8.6867 3.13121 10.0016 3.11865 11.6272V18.7123H2.92373C2.15168 18.7062 1.40895 19.0084 0.859989 19.5517C0.311409 20.0949 0.00190447 20.8346 1.00469e-06 21.6067V35.6406C-0.000760383 36.1838 0.431327 36.6292 0.974577 36.6445H1.94915V38.3012C1.95068 38.8388 2.38619 39.2743 2.92373 39.2758H9.35593C9.89347 39.2743 10.329 38.8388 10.3305 38.3012V36.6445H35.572V38.3012C35.5736 38.8388 36.0091 39.2743 36.5466 39.2758H42.9788C43.5164 39.2743 43.9519 38.8388 43.9534 38.3012V36.6445H45.0254C45.5687 36.6292 46.0008 36.1838 46 35.6406V21.6067C45.9981 20.8346 45.6886 20.0949 45.14 19.5517C44.5911 19.0084 43.8483 18.7062 43.0763 18.7123ZM5.0678 11.6272C5.07732 11.0767 5.5212 10.6328 6.07169 10.6233H40.0357C40.5846 10.6362 41.0266 11.0782 41.0396 11.6272V18.7123H39.4802C38.7078 18.7062 37.9651 19.0084 37.4165 19.5517C36.8675 20.0949 36.558 20.8346 36.5565 21.6067V21.9284H9.45339V21.6067C9.44996 20.835 9.14008 20.0965 8.5915 19.5536C8.04292 19.0107 7.30133 18.7081 6.52966 18.7123H5.0678V11.6272ZM9.45339 23.8775H36.5466V27.0936H9.45339V23.8775ZM8.38136 37.3267H3.89831V36.6445H8.38136V37.3267ZM42.0042 37.3267H37.5212V36.6445H42.0042V37.3267ZM44.0508 34.6953H1.94915V21.6067C1.95106 21.3516 2.05537 21.1076 2.23848 20.9302C2.42159 20.7524 2.66866 20.6557 2.92373 20.6614H6.52966C6.78473 20.6557 7.0318 20.7524 7.21491 20.9302C7.39803 21.1076 7.50234 21.3516 7.50424 21.6067V28.0389C7.50348 28.5821 7.93556 29.0275 8.47882 29.0428H37.5212C38.0644 29.0275 38.4965 28.5821 38.4958 28.0389V21.6067C38.4977 21.3516 38.602 21.1076 38.7851 20.9302C38.9682 20.7524 39.2153 20.6557 39.4703 20.6614H43.0763C43.3313 20.6557 43.5784 20.7524 43.7615 20.9302C43.9446 21.1076 44.0489 21.3516 44.0508 21.6067V34.6953Z" fill="url(#paint0_linear_1_187)"/>
</g>
<defs>
<linearGradient id="paint0_linear_1_187" x1="-3.68604" y1="11.8381" x2="26.1833" y2="59.205" gradientUnits="userSpaceOnUse">
<stop stop-color="#003A92"/>
<stop offset="1" stop-color="#74A0E3"/>
</linearGradient>
<clipPath id="clip0_1_187">
<rect width="46" height="46" fill="white" transform="translate(0 0.947571)"/>
</clipPath>
</defs>
</svg>
