<svg width="46" height="47" viewBox="0 0 46 47" fill="none" xmlns="http://www.w3.org/2000/svg">
<path d="M1.4375 37.3902C1.43752 37.5409 1.48492 37.6878 1.573 37.8101C1.66108 37.9324 1.78538 38.0239 1.92832 38.0717C2.10315 38.1303 4.91445 39.0474 8.95014 39.0474C11.3155 39.0526 13.67 38.7274 15.9453 38.0811C20.0586 36.9019 22.6018 34.6622 24.0856 32.8121C24.2747 32.9214 24.4735 33.013 24.6794 33.086C26.6067 36.3563 31.2591 38.6863 36.6089 39.0397C36.6246 39.0408 36.6404 39.0413 36.6562 39.0413H40.3736C40.5433 39.5207 40.877 39.9246 41.3156 40.1818C41.7543 40.439 42.2697 40.5329 42.7709 40.4469C43.2721 40.3609 43.7267 40.1006 44.0546 39.7118C44.3824 39.3231 44.5623 38.8311 44.5625 38.3226V35.4476C44.5623 34.9391 44.3824 34.447 44.0546 34.0583C43.7267 33.6696 43.2721 33.4092 42.7709 33.3232C42.2697 33.2373 41.7543 33.3311 41.3156 33.5883C40.877 33.8455 40.5433 34.2495 40.3736 34.7288H36.6819C33.285 34.4827 30.288 33.3017 28.8717 31.6781C29.2611 31.091 29.4687 30.4021 29.4687 29.6976C29.4687 28.9931 29.2611 28.3042 28.8717 27.7171C30.288 26.0935 33.285 24.9124 36.6819 24.6663H40.3736C40.5433 25.1457 40.877 25.5496 41.3156 25.8068C41.7543 26.064 42.2697 26.1579 42.7709 26.0719C43.2721 25.9859 43.7267 25.7256 44.0546 25.3368C44.3824 24.9481 44.5623 24.4561 44.5625 23.9476V21.0726C44.5623 20.5641 44.3824 20.072 44.0546 19.6833C43.7267 19.2946 43.2721 19.0342 42.7709 18.9482C42.2697 18.8623 41.7543 18.9561 41.3156 19.2133C40.877 19.4705 40.5433 19.8745 40.3736 20.3538H36.6562C36.6404 20.3538 36.6246 20.3544 36.6089 20.3554C31.2591 20.7089 26.6067 23.0384 24.6794 26.3091C24.4735 26.3821 24.2747 26.4738 24.0856 26.583C22.6018 24.7329 20.0586 22.4933 15.9453 21.3141C15.3623 21.147 14.7872 21.0046 14.2198 20.8869C14.3516 20.2105 14.5547 19.5499 14.8257 18.9163H17.25C18.965 18.9144 20.6093 18.2323 21.822 17.0195C23.0347 15.8068 23.7168 14.1626 23.7188 12.4476V8.13507C23.7188 7.94445 23.643 7.76163 23.5082 7.62684C23.3734 7.49205 23.1906 7.41632 23 7.41632H20.125C18.9366 7.41745 17.7715 7.74564 16.7573 8.36493C15.7431 8.98423 14.9189 9.87074 14.375 10.9273C13.8311 9.87074 13.0069 8.98423 11.9927 8.36493C10.9785 7.74564 9.81335 7.41745 8.625 7.41632H5.75C5.55938 7.41632 5.37656 7.49205 5.24177 7.62684C5.10698 7.76163 5.03125 7.94445 5.03125 8.13507V12.4476C5.03318 14.1626 5.71532 15.8068 6.92803 17.0195C8.14074 18.2323 9.78497 18.9144 11.5 18.9163H13.2789C13.0772 19.4756 12.9186 20.0495 12.8045 20.6331C6.80297 19.7326 2.15508 21.2476 1.92859 21.3234C1.78567 21.3712 1.6614 21.4628 1.57335 21.5851C1.4853 21.7074 1.43792 21.8543 1.43792 22.005C1.43792 22.1557 1.4853 22.3026 1.57335 22.4249C1.6614 22.5472 1.78567 22.6388 1.92859 22.6866L12.9952 26.3882C13.3256 27.666 13.8199 28.8958 14.4657 30.0468C14.5592 30.2117 14.7141 30.333 14.8965 30.3843C15.079 30.4356 15.2744 30.4127 15.4401 30.3207C15.6058 30.2286 15.7284 30.0748 15.7813 29.8928C15.8341 29.7107 15.8129 29.5152 15.7223 29.3487C15.2926 28.5805 14.9337 27.7748 14.65 26.9416L22.2875 29.4961C22.2838 29.5629 22.2815 29.63 22.2815 29.6978C22.2815 29.7655 22.2838 29.8325 22.2875 29.8995L1.92895 36.7087C1.7859 36.7564 1.66148 36.8479 1.57328 36.9702C1.48508 37.0925 1.43758 37.2394 1.4375 37.3902ZM41.6875 35.4476C41.6875 35.2569 41.7632 35.0741 41.898 34.9393C42.0328 34.8045 42.2156 34.7288 42.4062 34.7288C42.5969 34.7288 42.7797 34.8045 42.9145 34.9393C43.0493 35.0741 43.125 35.2569 43.125 35.4476V38.3226C43.125 38.5132 43.0493 38.696 42.9145 38.8308C42.7797 38.9656 42.5969 39.0413 42.4062 39.0413C42.2156 39.0413 42.0328 38.9656 41.898 38.8308C41.7632 38.696 41.6875 38.5132 41.6875 38.3226V35.4476ZM41.6875 21.0726C41.6875 20.8819 41.7632 20.6991 41.898 20.5643C42.0328 20.4295 42.2156 20.3538 42.4062 20.3538C42.5969 20.3538 42.7797 20.4295 42.9145 20.5643C43.0493 20.6991 43.125 20.8819 43.125 21.0726V23.9476C43.125 24.1382 43.0493 24.321 42.9145 24.4558C42.7797 24.5906 42.5969 24.6663 42.4062 24.6663C42.2156 24.6663 42.0328 24.5906 41.898 24.4558C41.7632 24.321 41.6875 24.1382 41.6875 23.9476V21.0726ZM15.0938 13.8851C15.0952 12.5512 15.6258 11.2723 16.569 10.3291C17.5122 9.38588 18.7911 8.85532 20.125 8.85382H22.2812V12.4476C22.2798 13.7815 21.7492 15.0603 20.806 16.0035C19.8628 16.9468 18.5839 17.4773 17.25 17.4788H15.9377L19.2332 13.6341C19.3573 13.4894 19.4188 13.3013 19.4042 13.1112C19.3896 12.9212 19.3 12.7447 19.1553 12.6206C19.0106 12.4965 18.8225 12.435 18.6324 12.4496C18.4423 12.4643 18.2659 12.5538 18.1418 12.6985L15.0938 16.2546V13.8851ZM4.81167 22.1352C7.39125 21.7088 10.0212 21.6837 12.6085 22.0609C12.5392 22.9633 12.5641 23.8706 12.6828 24.7679L4.81167 22.1352ZM38.8125 36.1663H40.25V37.6038H38.8125V36.1663ZM36.6054 36.1645C36.6223 36.1657 36.6393 36.1663 36.6562 36.1663H37.375V37.6038H36.6802C32.3128 37.3101 28.4912 35.635 26.5279 33.2308C27.0015 33.1434 27.4526 32.9611 27.854 32.695C29.5592 34.5851 32.8314 35.8968 36.6054 36.1645ZM38.8125 21.7913H40.25V23.2288H38.8125V21.7913ZM36.6802 21.7913H37.375V23.2288H36.6562C36.6393 23.2288 36.6223 23.2295 36.6054 23.2306C32.8314 23.4986 29.5592 24.8099 27.8546 26.7001C27.4532 26.434 27.0021 26.2518 26.5285 26.1644C28.4912 23.7602 32.3128 22.085 36.6802 21.7913ZM25.875 27.5413C26.3015 27.5413 26.7184 27.6678 27.0729 27.9047C27.4275 28.1416 27.7039 28.4784 27.8671 28.8724C28.0303 29.2664 28.073 29.7 27.9898 30.1182C27.9066 30.5365 27.7013 30.9207 27.3997 31.2223C27.0981 31.5238 26.7139 31.7292 26.2957 31.8124C25.8774 31.8956 25.4438 31.8529 25.0498 31.6897C24.6558 31.5265 24.3191 31.2501 24.0821 30.8955C23.8452 30.5409 23.7188 30.124 23.7188 29.6976C23.7194 29.1259 23.9468 28.5778 24.351 28.1736C24.7553 27.7694 25.3033 27.542 25.875 27.5413ZM13.6562 16.2546L10.6082 12.6985C10.4841 12.5538 10.3077 12.4643 10.1176 12.4496C9.92751 12.435 9.73942 12.4965 9.59468 12.6206C9.44995 12.7447 9.36044 12.9212 9.34583 13.1112C9.33122 13.3013 9.39272 13.4894 9.51679 13.6341L12.8123 17.4788H11.5C10.1661 17.4773 8.88724 16.9468 7.94402 16.0035C7.00081 15.0603 6.47025 13.7815 6.46875 12.4476V8.85382H8.625C9.95891 8.85532 11.2378 9.38588 12.181 10.3291C13.1242 11.2723 13.6548 12.5512 13.6562 13.8851V16.2546ZM14.2133 25.2798C14.0257 24.3044 13.9648 23.309 14.0319 22.3181C14.5313 22.4246 15.0376 22.5493 15.549 22.696C19.3474 23.7848 21.6683 25.8495 23.006 27.5358C22.8717 27.7137 22.7542 27.9037 22.6551 28.1033L14.2133 25.2798ZM22.6554 31.2918C22.7546 31.4915 22.8721 31.6815 23.0064 31.8594C21.6683 33.5459 19.3474 35.6104 15.5493 36.6992C11.2255 37.939 7.24437 37.6584 4.81733 37.2581L22.6554 31.2918ZM25.1562 29.6976C25.1562 29.5554 25.1984 29.4165 25.2774 29.2983C25.3564 29.1801 25.4686 29.0879 25.5999 29.0335C25.7313 28.9791 25.8758 28.9649 26.0152 28.9926C26.1546 29.0204 26.2827 29.0888 26.3832 29.1893C26.4838 29.2899 26.5522 29.4179 26.5799 29.5574C26.6077 29.6968 26.5934 29.8413 26.539 29.9726C26.4846 30.104 26.3925 30.2162 26.2743 30.2952C26.1561 30.3742 26.0172 30.4163 25.875 30.4163C25.6844 30.4163 25.5016 30.3406 25.3668 30.2058C25.232 30.071 25.1562 29.8882 25.1562 29.6976Z" fill="url(#paint0_linear_1_122)"/>
<defs>
<linearGradient id="paint0_linear_1_122" x1="-2.01816" y1="10.8347" x2="31.9959" y2="57.6405" gradientUnits="userSpaceOnUse">
<stop stop-color="#003A92"/>
<stop offset="1" stop-color="#74A0E3"/>
</linearGradient>
</defs>
</svg>
