<svg width="46" height="46" viewBox="0 0 46 46" fill="none" xmlns="http://www.w3.org/2000/svg">
<circle cx="23.137" cy="22.7664" r="22.3186" fill="#EDFFEE"/>
<g style="mix-blend-mode:multiply" opacity="0.22">
<path d="M11.6884 38.3678L12.5496 37.3135L13.3975 38.3678L14.2587 37.3135L15.1067 38.3678L15.9678 37.3135L16.8158 38.3678L17.6768 37.3135L18.5249 38.3678L19.3861 37.3135L20.234 38.3678L21.0952 37.3135L21.943 38.3678L22.8043 37.3135L23.6521 38.3678L24.5133 37.3135L25.3614 38.3678L26.2224 37.3135L27.0704 38.3678L27.9315 37.3135L28.7795 38.3678L29.6407 37.3135L30.4886 38.3678L31.3498 37.3135L32.1954 38.3648V13.08H11.6866V38.3678H11.6884Z" fill="#3C6F7A"/>
</g>
<path d="M9.74199 36.3835L10.6032 35.3292L11.4512 36.3835L12.3123 35.3292L13.1603 36.3835L14.0215 35.3292L14.8694 36.3835L15.7306 35.3292L16.5785 36.3835L17.4397 35.3292L18.2875 36.3835L19.1488 35.3292L19.9966 36.3835L20.8578 35.3292L21.7059 36.3835L22.5669 35.3292L23.415 36.3835L24.2762 35.3292L25.124 36.3835L25.9852 35.3292L26.8331 36.3835L27.6943 35.3292L28.5422 36.3835L29.4034 35.3292L30.249 36.3805V10.6697H9.74023V36.3835H9.74199Z" fill="#F7F7F7"/>
<path d="M18.9874 19.464H12.1707C12.0739 19.464 11.9811 19.4256 11.9126 19.3572C11.8441 19.2889 11.8057 19.1961 11.8057 19.0994C11.8056 19.0515 11.8151 19.0041 11.8334 18.9599C11.8517 18.9156 11.8786 18.8754 11.9125 18.8415C11.9464 18.8077 11.9867 18.7808 12.031 18.7624C12.0753 18.7441 12.1228 18.7347 12.1707 18.7347H18.9874C19.0353 18.7347 19.0828 18.7441 19.1271 18.7624C19.1714 18.7808 19.2117 18.8077 19.2456 18.8415C19.2795 18.8754 19.3064 18.9156 19.3247 18.9599C19.343 19.0041 19.3525 19.0515 19.3524 19.0994C19.3524 19.1961 19.314 19.2889 19.2455 19.3572C19.1771 19.4256 19.0842 19.464 18.9874 19.464Z" fill="#C4C4C4"/>
<path d="M27.6778 19.464H25.1168C25.0689 19.464 25.0214 19.4546 24.9771 19.4363C24.9328 19.418 24.8925 19.3912 24.8586 19.3573C24.8247 19.3234 24.7978 19.2832 24.7794 19.239C24.761 19.1948 24.7516 19.1473 24.7516 19.0994C24.7516 19.0027 24.7901 18.9099 24.8586 18.8415C24.9271 18.7731 25.02 18.7347 25.1168 18.7347H27.6778C27.7258 18.7347 27.7732 18.7441 27.8175 18.7624C27.8619 18.7808 27.9021 18.8077 27.936 18.8415C27.9699 18.8754 27.9968 18.9156 28.0151 18.9599C28.0335 19.0041 28.0429 19.0515 28.0429 19.0994C28.0429 19.1961 28.0044 19.2889 27.9359 19.3572C27.8675 19.4256 27.7746 19.464 27.6778 19.464Z" fill="#C4C4C4"/>
<path d="M27.6778 21.0757H25.1168C25.02 21.0757 24.9271 21.0373 24.8586 20.9689C24.7901 20.9005 24.7516 20.8077 24.7516 20.711C24.7516 20.6631 24.761 20.6156 24.7794 20.5714C24.7978 20.5272 24.8247 20.487 24.8586 20.4531C24.8925 20.4192 24.9328 20.3924 24.9771 20.3741C25.0214 20.3558 25.0689 20.3464 25.1168 20.3464H27.6778C27.7746 20.3464 27.8675 20.3848 27.9359 20.4532C28.0044 20.5215 28.0429 20.6143 28.0429 20.711C28.0429 20.7588 28.0335 20.8063 28.0151 20.8505C27.9968 20.8948 27.9699 20.935 27.936 20.9689C27.9021 21.0027 27.8619 21.0296 27.8175 21.0479C27.7732 21.0663 27.7258 21.0757 27.6778 21.0757Z" fill="#C4C4C4"/>
<path d="M27.6778 22.6875H25.1168C25.0201 22.6876 24.9274 22.6493 24.8589 22.5811C24.7904 22.5129 24.7518 22.4204 24.7516 22.3238C24.7516 22.2271 24.7901 22.1343 24.8586 22.0659C24.9271 21.9975 25.02 21.959 25.1168 21.959H27.6778C27.7746 21.9592 27.8673 21.9977 27.9356 22.0661C28.0039 22.1345 28.0423 22.2272 28.0422 22.3238C28.042 22.4202 28.0035 22.5126 27.9352 22.5808C27.8669 22.6489 27.7744 22.6873 27.6778 22.6875Z" fill="#C4C4C4"/>
<path d="M27.6778 25.9114H25.1168C25.0689 25.9114 25.0214 25.902 24.9771 25.8837C24.9328 25.8654 24.8925 25.8385 24.8586 25.8047C24.8247 25.7708 24.7978 25.7306 24.7794 25.6864C24.761 25.6421 24.7516 25.5947 24.7516 25.5468C24.7516 25.4501 24.7901 25.3573 24.8586 25.2889C24.9271 25.2205 25.02 25.1821 25.1168 25.1821H27.6778C27.7258 25.1821 27.7732 25.1915 27.8175 25.2098C27.8619 25.2282 27.9021 25.255 27.936 25.2889C27.9699 25.3228 27.9968 25.363 28.0151 25.4072C28.0335 25.4515 28.0429 25.4989 28.0429 25.5468C28.0429 25.6435 28.0044 25.7362 27.9359 25.8046C27.8675 25.873 27.7746 25.9114 27.6778 25.9114Z" fill="#C4C4C4"/>
<path d="M27.6778 27.5234H25.1168C25.02 27.5234 24.9271 27.485 24.8586 27.4166C24.7901 27.3482 24.7516 27.2554 24.7516 27.1586C24.7516 27.1108 24.761 27.0633 24.7794 27.0191C24.7978 26.9748 24.8247 26.9346 24.8586 26.9008C24.8925 26.8669 24.9328 26.8401 24.9771 26.8218C25.0214 26.8035 25.0689 26.794 25.1168 26.7941H27.6778C27.7746 26.7941 27.8675 26.8325 27.9359 26.9008C28.0044 26.9692 28.0429 27.062 28.0429 27.1586C28.0429 27.2065 28.0335 27.254 28.0151 27.2982C27.9968 27.3425 27.9699 27.3827 27.936 27.4166C27.9021 27.4504 27.8619 27.4773 27.8175 27.4956C27.7732 27.514 27.7258 27.5234 27.6778 27.5234Z" fill="#C4C4C4"/>
<path d="M16.3461 21.0757H12.1711C12.1231 21.0757 12.0757 21.0663 12.0314 21.0479C11.9871 21.0296 11.9468 21.0027 11.9129 20.9689C11.879 20.935 11.8521 20.8948 11.8338 20.8505C11.8154 20.8063 11.806 20.7588 11.806 20.711C11.806 20.6143 11.8445 20.5215 11.913 20.4532C11.9814 20.3848 12.0743 20.3464 12.1711 20.3464H16.3461C16.4429 20.3464 16.5358 20.3848 16.6043 20.4532C16.6727 20.5215 16.7112 20.6143 16.7112 20.711C16.7112 20.7588 16.7018 20.8063 16.6835 20.8505C16.6651 20.8948 16.6382 20.935 16.6043 20.9689C16.5704 21.0027 16.5302 21.0296 16.4859 21.0479C16.4416 21.0663 16.3941 21.0757 16.3461 21.0757Z" fill="#C4C4C4"/>
<path d="M17.3516 22.6875H12.1711C12.0744 22.6875 11.9817 22.6492 11.9133 22.581C11.8448 22.5128 11.8063 22.4203 11.806 22.3238C11.806 22.2759 11.8154 22.2285 11.8338 22.1842C11.8521 22.14 11.879 22.0998 11.9129 22.0659C11.9468 22.032 11.9871 22.0051 12.0314 21.9868C12.0757 21.9685 12.1231 21.959 12.1711 21.959H17.3516C17.4484 21.9591 17.5412 21.9976 17.6096 22.066C17.678 22.1344 17.7165 22.2271 17.7165 22.3238C17.7162 22.4203 17.6777 22.5128 17.6093 22.581C17.5409 22.6491 17.4482 22.6875 17.3516 22.6875Z" fill="#C4C4C4"/>
<path d="M17.8691 25.9114H12.1711C12.0743 25.9114 11.9814 25.873 11.913 25.8046C11.8445 25.7362 11.806 25.6435 11.806 25.5468C11.806 25.4989 11.8154 25.4515 11.8338 25.4072C11.8521 25.363 11.879 25.3228 11.9129 25.2889C11.9468 25.255 11.9871 25.2282 12.0314 25.2098C12.0757 25.1915 12.1231 25.1821 12.1711 25.1821H17.8691C17.966 25.1821 18.0589 25.2205 18.1274 25.2889C18.1959 25.3573 18.2344 25.4501 18.2344 25.5468C18.2344 25.5947 18.2249 25.6421 18.2066 25.6864C18.1882 25.7306 18.1613 25.7708 18.1274 25.8047C18.0935 25.8385 18.0532 25.8654 18.0089 25.8837C17.9646 25.902 17.9171 25.9114 17.8691 25.9114Z" fill="#C4C4C4"/>
<path d="M18.5392 27.5234H12.1711C12.1231 27.5234 12.0757 27.514 12.0314 27.4956C11.9871 27.4773 11.9468 27.4504 11.9129 27.4166C11.879 27.3827 11.8521 27.3425 11.8338 27.2982C11.8154 27.254 11.806 27.2065 11.806 27.1586C11.806 27.062 11.8445 26.9692 11.913 26.9008C11.9814 26.8325 12.0743 26.7941 12.1711 26.7941H18.5392C18.636 26.7941 18.7289 26.8325 18.7973 26.9008C18.8658 26.9692 18.9043 27.062 18.9043 27.1586C18.9043 27.2065 18.8949 27.254 18.8765 27.2982C18.8582 27.3425 18.8313 27.3827 18.7974 27.4166C18.7635 27.4504 18.7233 27.4773 18.6789 27.4956C18.6346 27.514 18.5872 27.5234 18.5392 27.5234Z" fill="#C4C4C4"/>
<path d="M27.6778 14.5854H25.1168C25.0689 14.5854 25.0214 14.576 24.9771 14.5577C24.9328 14.5393 24.8925 14.5125 24.8586 14.4786C24.8247 14.4448 24.7978 14.4046 24.7794 14.3603C24.761 14.3161 24.7516 14.2687 24.7516 14.2208C24.7516 14.124 24.7901 14.0313 24.8586 13.9629C24.9271 13.8944 25.02 13.856 25.1168 13.856H27.6778C27.7258 13.856 27.7732 13.8655 27.8175 13.8838C27.8619 13.9021 27.9021 13.929 27.936 13.9629C27.9699 13.9967 27.9968 14.0369 28.0151 14.0812C28.0335 14.1255 28.0429 14.1729 28.0429 14.2208C28.0429 14.3175 28.0044 14.4102 27.9359 14.4786C27.8675 14.5469 27.7746 14.5854 27.6778 14.5854Z" fill="#C4C4C4"/>
<path d="M27.6778 16.1974H25.1168C25.0688 16.1974 25.0213 16.1879 24.977 16.1696C24.9326 16.1512 24.8924 16.1243 24.8584 16.0904C24.8245 16.0565 24.7976 16.0163 24.7793 15.972C24.761 15.9277 24.7515 15.8802 24.7516 15.8323C24.7516 15.7844 24.761 15.737 24.7794 15.6927C24.7978 15.6485 24.8247 15.6083 24.8586 15.5744C24.8925 15.5406 24.9328 15.5137 24.9771 15.4954C25.0214 15.4771 25.0689 15.4677 25.1168 15.4677H27.6778C27.7745 15.4679 27.8672 15.5064 27.9355 15.5747C28.0039 15.6431 28.0422 15.7357 28.0422 15.8323C28.0424 15.9289 28.0041 16.0217 27.9357 16.0902C27.8674 16.1586 27.7746 16.1972 27.6778 16.1974Z" fill="#C4C4C4"/>
<path d="M17.8691 14.5854H12.1711C12.0743 14.5854 11.9814 14.5469 11.913 14.4786C11.8445 14.4102 11.806 14.3175 11.806 14.2208C11.806 14.1729 11.8154 14.1255 11.8338 14.0812C11.8521 14.0369 11.879 13.9967 11.9129 13.9629C11.9468 13.929 11.9871 13.9021 12.0314 13.8838C12.0757 13.8655 12.1231 13.856 12.1711 13.856H17.8691C17.966 13.856 18.0589 13.8944 18.1274 13.9629C18.1959 14.0313 18.2344 14.124 18.2344 14.2208C18.2344 14.2687 18.2249 14.3161 18.2066 14.3603C18.1882 14.4046 18.1613 14.4448 18.1274 14.4786C18.0935 14.5125 18.0532 14.5393 18.0089 14.5577C17.9646 14.576 17.9171 14.5854 17.8691 14.5854Z" fill="#C4C4C4"/>
<path d="M18.5392 16.1974H12.1711C12.1231 16.1974 12.0756 16.1879 12.0313 16.1696C11.9869 16.1512 11.9467 16.1243 11.9128 16.0904C11.8789 16.0565 11.852 16.0163 11.8337 15.972C11.8154 15.9277 11.806 15.8802 11.806 15.8323C11.806 15.7844 11.8155 15.737 11.8338 15.6928C11.8522 15.6485 11.8791 15.6083 11.913 15.5745C11.9469 15.5406 11.9871 15.5138 12.0314 15.4955C12.0757 15.4771 12.1232 15.4677 12.1711 15.4677H18.5392C18.636 15.4677 18.7289 15.5061 18.7974 15.5745C18.8658 15.6429 18.9043 15.7356 18.9043 15.8323C18.9044 15.8802 18.895 15.9277 18.8766 15.972C18.8583 16.0163 18.8314 16.0565 18.7975 16.0904C18.7636 16.1243 18.7234 16.1512 18.679 16.1696C18.6347 16.1879 18.5872 16.1974 18.5392 16.1974Z" fill="#C4C4C4"/>
<path d="M19.8335 29.5979H13.3085C12.4787 29.5979 11.806 30.2697 11.806 31.0983C11.806 31.927 12.4787 32.5988 13.3085 32.5988H19.8335C20.6633 32.5988 21.336 31.927 21.336 31.0983C21.336 30.2697 20.6633 29.5979 19.8335 29.5979Z" fill="#E8E8E8"/>
<path d="M26.5488 32.3594V32.788H26.1199V32.3594H25.2617V31.7168H26.1199V31.1811C25.5477 31.1811 25.2616 30.8812 25.2617 30.2814C25.2617 29.6674 25.5478 29.3603 26.1199 29.3601V28.9317H26.5488V29.3593H27.407V30.0021H26.5488V30.5376C27.1208 30.5376 27.4069 30.8447 27.407 31.4588C27.407 32.0592 27.1209 32.3594 26.5488 32.3594ZM25.9053 30.2811C25.9053 30.4524 25.9768 30.5381 26.1199 30.5381V30.0026C25.9767 30.0026 25.9051 30.0954 25.9053 30.2811ZM26.5488 31.1808V31.7164C26.6918 31.7164 26.7633 31.6307 26.7633 31.4594C26.7633 31.2737 26.6918 31.1809 26.5488 31.1808Z" fill="#F55B62"/>
<g style="mix-blend-mode:multiply" opacity="0.13">
<path d="M28.773 23.2888C24.4936 23.2888 21.0122 19.8119 21.0122 15.5386C21.0122 11.2652 24.4936 7.78815 28.773 7.78815C33.0523 7.78815 36.5337 11.265 36.5337 15.5386C36.5337 19.8121 33.0522 23.2888 28.773 23.2888Z" fill="#595959"/>
</g>
<path d="M27.6782 21.1746C31.5521 21.1746 34.6925 18.0385 34.6925 14.1699C34.6925 10.3013 31.5521 7.16516 27.6782 7.16516C23.8043 7.16516 20.6639 10.3013 20.6639 14.1699C20.6639 18.0385 23.8043 21.1746 27.6782 21.1746Z" fill="#9ED13F"/>
<path d="M25.8556 17.0267L23.7316 15.038C23.6238 14.9371 23.5378 14.8151 23.4791 14.6797C23.4203 14.5443 23.39 14.3983 23.39 14.2507C23.39 14.1031 23.4203 13.9571 23.4791 13.8217C23.5378 13.6863 23.6238 13.5643 23.7316 13.4634C23.9319 13.2759 24.1962 13.1716 24.4707 13.1716C24.7452 13.1716 25.0095 13.2759 25.2098 13.4634L26.3574 14.5378C26.4217 14.5979 26.5065 14.6313 26.5946 14.6313C26.6827 14.6313 26.7674 14.5979 26.8318 14.5378L30.1246 11.4552C30.3249 11.2677 30.5891 11.1633 30.8637 11.1633C31.1382 11.1633 31.4024 11.2677 31.6027 11.4552C31.7105 11.5561 31.7965 11.6781 31.8553 11.8135C31.914 11.9489 31.9444 12.0949 31.9444 12.2425C31.9444 12.3901 31.914 12.5361 31.8553 12.6716C31.7965 12.807 31.7105 12.9289 31.6027 13.0298L27.3335 17.0267C27.1332 17.2141 26.869 17.3184 26.5946 17.3184C26.3201 17.3184 26.0559 17.2141 25.8556 17.0267Z" fill="white"/>
</svg>
