<svg width="46" height="46" viewBox="0 0 46 46" fill="none" xmlns="http://www.w3.org/2000/svg">
<circle cx="23.2249" cy="22.7664" r="22.3186" fill="#EDFFEE"/>
<path d="M33.8812 16.5577H13.0299C12.7026 16.5577 12.4373 16.8214 12.4373 17.1466V24.1195C12.4373 24.4447 12.7026 24.7083 13.0299 24.7083H33.8812C34.2085 24.7083 34.4739 24.4447 34.4739 24.1195V17.1466C34.4739 16.8214 34.2085 16.5577 33.8812 16.5577Z" fill="url(#paint0_linear_1_307)"/>
<path d="M14.556 22.1912L14.7989 22.8725L15.0403 22.1912H15.2964V23.1315H15.1008V22.8745L15.1203 22.4312L14.8648 23.1315H14.7311L14.4769 22.4311L14.4954 22.8745V23.1315H14.3014V22.1912H14.556Z" fill="url(#paint1_linear_1_307)"/>
<path d="M15.4256 22.775C15.4244 22.711 15.4382 22.6476 15.4659 22.5898C15.491 22.5374 15.5314 22.4936 15.5817 22.4641C15.6351 22.4336 15.6958 22.4182 15.7574 22.4195C15.7999 22.4178 15.8424 22.4246 15.8823 22.4395C15.9221 22.4543 15.9586 22.4769 15.9896 22.5059C16.0497 22.5636 16.0832 22.6419 16.0899 22.7409L16.0912 22.7886C16.0912 22.8958 16.0611 22.9815 16.0009 23.0456C15.9407 23.1097 15.8599 23.1421 15.7587 23.1427C15.6575 23.1427 15.5766 23.1104 15.5161 23.0458C15.4557 22.9811 15.4255 22.8935 15.4256 22.7827V22.775ZM15.6133 22.7882C15.6133 22.8547 15.6259 22.9053 15.6503 22.9406C15.6629 22.9569 15.6791 22.9701 15.6977 22.9792C15.7163 22.9883 15.7367 22.993 15.7574 22.993C15.7781 22.993 15.7985 22.9883 15.8171 22.9792C15.8357 22.9701 15.8519 22.9569 15.8645 22.9406C15.89 22.906 15.9028 22.8505 15.9028 22.7741C15.9028 22.7091 15.89 22.6587 15.8645 22.623C15.8526 22.6058 15.8364 22.5918 15.8176 22.5823C15.7987 22.5729 15.7778 22.5684 15.7567 22.5693C15.7358 22.5684 15.7151 22.5728 15.6964 22.5822C15.6778 22.5915 15.6619 22.6055 15.6503 22.6227C15.6256 22.6585 15.6133 22.7137 15.6133 22.7882Z" fill="url(#paint2_linear_1_307)"/>
<path d="M17.9807 22.3479H17.6919V23.1315H17.4961V22.3479H17.2103V22.1912H17.9807V22.3479Z" fill="url(#paint3_linear_1_307)"/>
<path d="M18.458 23.0597C18.4347 23.0875 18.4052 23.1095 18.3718 23.1241C18.3384 23.1386 18.3021 23.1453 18.2657 23.1436C18.1905 23.1436 18.1329 23.1219 18.0934 23.079C18.0538 23.036 18.0335 22.9729 18.0326 22.8899V22.4323H18.2203V22.884C18.2203 22.9567 18.2537 22.9931 18.3204 22.9931C18.384 22.9931 18.4277 22.9712 18.4516 22.9272V22.4316H18.6398V23.1291H18.4632L18.458 23.0597Z" fill="url(#paint4_linear_1_307)"/>
<path d="M20.5797 22.8597L20.707 22.1912H20.9013L20.6915 23.1315H20.4953L20.3414 22.503L20.1875 23.1315H19.9913L19.7816 22.1921H19.9758L20.1036 22.8593L20.2595 22.1912H20.4245L20.5797 22.8597Z" fill="url(#paint5_linear_1_307)"/>
<path d="M21.2977 23.1436C21.1946 23.1436 21.1107 23.1121 21.0461 23.0492C20.9814 22.9863 20.949 22.9027 20.9489 22.7983V22.78C20.9478 22.715 20.9618 22.6507 20.9899 22.592C21.0149 22.5388 21.0552 22.4941 21.1058 22.4635C21.1576 22.4333 21.2169 22.4178 21.277 22.4187C21.3731 22.4187 21.4487 22.4488 21.5039 22.5091C21.559 22.5693 21.5867 22.6549 21.5868 22.766V22.8422H21.1392C21.1435 22.8844 21.1633 22.9235 21.1946 22.9523C21.2265 22.9803 21.2681 22.9951 21.3106 22.9936C21.3431 22.995 21.3755 22.9887 21.405 22.975C21.4345 22.9614 21.4603 22.941 21.4802 22.9154L21.5726 23.018C21.5434 23.0584 21.5039 23.0904 21.4582 23.1107C21.4078 23.1332 21.353 23.1445 21.2977 23.1436ZM21.2759 22.5698C21.259 22.5692 21.2421 22.5723 21.2265 22.5788C21.2109 22.5853 21.1968 22.595 21.1854 22.6074C21.1598 22.6379 21.1443 22.6755 21.1409 22.715H21.4019V22.7001C21.4034 22.665 21.3913 22.6305 21.3681 22.6039C21.356 22.5921 21.3415 22.583 21.3257 22.5771C21.3098 22.5712 21.2928 22.5687 21.2759 22.5698Z" fill="url(#paint6_linear_1_307)"/>
<path d="M24.4138 21.6666H22.5634C22.4753 21.6666 22.4038 21.7376 22.4038 21.8252V23.6636C22.4038 23.7512 22.4753 23.8222 22.5634 23.8222H24.4138C24.5019 23.8222 24.5734 23.7512 24.5734 23.6636V21.8252C24.5734 21.7376 24.5019 21.6666 24.4138 21.6666Z" fill="url(#paint7_linear_1_307)"/>
<path d="M23.5013 22.3479H23.2116V23.1315H23.0167V22.3479H22.731V22.1912H23.5013V22.3479Z" fill="url(#paint8_linear_1_307)"/>
<path d="M23.783 22.5085C23.8053 22.4803 23.8338 22.4576 23.8664 22.4422C23.8989 22.4267 23.9347 22.419 23.9707 22.4195C24.1232 22.4195 24.2005 22.5075 24.2026 22.6834V23.1315H24.0149V22.6877C24.0175 22.6558 24.0082 22.6241 23.9888 22.5986C23.9715 22.5803 23.9426 22.5698 23.9026 22.5698C23.8786 22.5682 23.8547 22.5732 23.8336 22.5845C23.8124 22.5957 23.7949 22.6126 23.783 22.6333V23.1315H23.5953V22.1403H23.783V22.5085Z" fill="url(#paint9_linear_1_307)"/>
<path d="M26.3144 22.746H25.9403V23.1315H25.7454V22.1912H26.3611V22.3479H25.9403V22.5906H26.3144V22.746Z" fill="url(#paint10_linear_1_307)"/>
<path d="M26.8399 22.6073C26.8175 22.604 26.7949 22.6023 26.7722 22.6021C26.7013 22.6021 26.6548 22.626 26.6328 22.6737V23.1315H26.4451V22.434H26.6222L26.6274 22.5173C26.6651 22.4532 26.7173 22.4212 26.7841 22.4212C26.8038 22.421 26.8235 22.4238 26.8424 22.4296L26.8399 22.6073Z" fill="url(#paint11_linear_1_307)"/>
<path d="M28.8395 22.884C28.8404 22.8679 28.8373 22.8519 28.8305 22.8372C28.8237 22.8226 28.8134 22.8098 28.8005 22.8C28.7572 22.7723 28.7098 22.7514 28.6601 22.7379C28.6049 22.7212 28.5512 22.6997 28.4998 22.6737C28.3925 22.616 28.3388 22.5384 28.3387 22.4408C28.3381 22.392 28.3532 22.3444 28.3819 22.3049C28.4136 22.2629 28.4566 22.2306 28.5059 22.2117C28.5636 22.1886 28.6253 22.1772 28.6875 22.1781C28.7496 22.1771 28.8112 22.1896 28.868 22.2148C28.9181 22.2367 28.9608 22.2725 28.991 22.3178C29.0205 22.3626 29.0358 22.4151 29.035 22.4687H28.8401C28.8411 22.45 28.838 22.4313 28.8309 22.414C28.8239 22.3967 28.8131 22.3811 28.7992 22.3684C28.7666 22.3428 28.7256 22.3301 28.6842 22.3326C28.6449 22.3303 28.606 22.3408 28.5733 22.3626C28.5607 22.3716 28.5506 22.3835 28.5437 22.3973C28.5368 22.411 28.5334 22.4263 28.5338 22.4417C28.5341 22.4574 28.5386 22.4727 28.5467 22.4861C28.5549 22.4996 28.5664 22.5107 28.5801 22.5184C28.6227 22.5441 28.6687 22.5637 28.7169 22.5764C28.8277 22.6096 28.9084 22.6507 28.959 22.6997C28.9839 22.7234 29.0036 22.7519 29.0167 22.7835C29.0298 22.8151 29.0361 22.8491 29.0352 22.8833C29.0367 22.9203 29.0291 22.9571 29.013 22.9904C28.9968 23.0238 28.9728 23.0528 28.9428 23.0747C28.8812 23.121 28.7979 23.1441 28.6928 23.1441C28.6245 23.1451 28.5567 23.1315 28.4941 23.1043C28.439 23.0817 28.3916 23.044 28.3573 22.9956C28.3255 22.9483 28.3091 22.8925 28.3102 22.8356H28.5057C28.5057 22.9393 28.5681 22.9912 28.6928 22.991C28.731 22.9932 28.7689 22.9834 28.8013 22.9631C28.8138 22.9542 28.8239 22.9422 28.8305 22.9284C28.8372 22.9146 28.8403 22.8993 28.8395 22.884Z" fill="url(#paint12_linear_1_307)"/>
<path d="M29.562 23.1315C29.5525 23.1117 29.5462 23.0906 29.5435 23.0689C29.5213 23.0937 29.494 23.1133 29.4633 23.1264C29.4327 23.1395 29.3995 23.1456 29.3661 23.1445C29.3036 23.1467 29.2426 23.1255 29.1951 23.085C29.1732 23.0667 29.1558 23.0438 29.144 23.0179C29.1323 22.992 29.1265 22.9638 29.1271 22.9354C29.1254 22.9024 29.1322 22.8695 29.1467 22.8397C29.1611 22.8099 29.1829 22.7842 29.21 22.7649C29.2652 22.7255 29.3453 22.7056 29.4502 22.7051H29.5366V22.6651C29.5381 22.6371 29.5292 22.6095 29.5115 22.5876C29.5014 22.5772 29.489 22.5692 29.4754 22.5642C29.4618 22.5591 29.4471 22.5572 29.4326 22.5584C29.4061 22.5569 29.3798 22.565 29.3587 22.5812C29.3498 22.5887 29.3427 22.5983 29.338 22.609C29.3333 22.6197 29.3312 22.6314 29.3318 22.643H29.1441C29.1439 22.6026 29.1569 22.5632 29.181 22.5307C29.2084 22.4946 29.2452 22.4666 29.2874 22.4498C29.3364 22.4296 29.389 22.4196 29.4421 22.4204C29.5283 22.4204 29.597 22.442 29.6482 22.4852C29.6995 22.5284 29.7249 22.5892 29.7245 22.6676V22.9701C29.7245 23.0365 29.7338 23.0866 29.7524 23.1206V23.1315H29.562ZM29.4068 23.0019C29.4335 23.0021 29.4598 22.9958 29.4834 22.9835C29.5053 22.9726 29.5234 22.9554 29.5354 22.9342V22.8141H29.4652C29.3713 22.8141 29.3213 22.8464 29.3151 22.9108V22.9219C29.3149 22.9326 29.3169 22.9434 29.3212 22.9533C29.3255 22.9632 29.3318 22.9721 29.3399 22.9793C29.3586 22.9947 29.3825 23.0024 29.4068 23.001V23.0019Z" fill="url(#paint13_linear_1_307)"/>
<path d="M31.5946 22.884C31.5954 22.8679 31.5923 22.8519 31.5855 22.8372C31.5787 22.8226 31.5685 22.8098 31.5556 22.8C31.5122 22.7723 31.4649 22.7514 31.4152 22.7379C31.3599 22.7212 31.3063 22.6997 31.2548 22.6737C31.1474 22.616 31.0937 22.5384 31.0937 22.4408C31.0931 22.392 31.1083 22.3444 31.137 22.3049C31.1687 22.2629 31.2117 22.2306 31.2611 22.2117C31.3187 22.1886 31.3804 22.1772 31.4425 22.1781C31.5047 22.1771 31.5663 22.1896 31.623 22.2148C31.6731 22.2367 31.7159 22.2725 31.7462 22.3178C31.7756 22.3626 31.7908 22.4152 31.79 22.4687H31.5951C31.5962 22.45 31.593 22.4313 31.586 22.414C31.5789 22.3967 31.5681 22.3811 31.5543 22.3684C31.5217 22.3428 31.4808 22.3301 31.4394 22.3326C31.4001 22.3303 31.3612 22.3408 31.3285 22.3626C31.316 22.3716 31.3058 22.3835 31.2989 22.3973C31.292 22.411 31.2886 22.4263 31.289 22.4417C31.2894 22.4574 31.2939 22.4727 31.302 22.4861C31.3101 22.4996 31.3216 22.5107 31.3354 22.5184C31.3779 22.5441 31.424 22.5636 31.4721 22.5764C31.5829 22.6096 31.6637 22.6507 31.7144 22.6997C31.7393 22.7234 31.7588 22.752 31.7719 22.7836C31.785 22.8152 31.7913 22.8491 31.7904 22.8833C31.7919 22.9203 31.7843 22.9571 31.7682 22.9904C31.7521 23.0238 31.728 23.0528 31.698 23.0747C31.6364 23.121 31.5531 23.1441 31.4481 23.1441C31.3797 23.1451 31.3119 23.1315 31.2493 23.1043C31.1943 23.0817 31.1469 23.044 31.1126 22.9956C31.0808 22.9483 31.0643 22.8925 31.0655 22.8356H31.2609C31.2609 22.9393 31.3233 22.9912 31.4481 22.991C31.4863 22.9932 31.5242 22.9835 31.5565 22.9631C31.569 22.9542 31.579 22.9422 31.5857 22.9284C31.5923 22.9146 31.5954 22.8993 31.5946 22.884Z" fill="url(#paint14_linear_1_307)"/>
<path d="M32.3305 23.0597C32.3071 23.0875 32.2776 23.1095 32.2442 23.1241C32.2109 23.1386 32.1746 23.1453 32.1382 23.1436C32.063 23.1436 32.0053 23.1219 31.9658 23.079C31.9263 23.036 31.906 22.9729 31.905 22.8899V22.4323H32.0927V22.884C32.0927 22.9575 32.1262 22.9942 32.1929 22.9942C32.2564 22.9942 32.3001 22.9721 32.324 22.9281V22.4325H32.5123V23.13H32.3357L32.3305 23.0597Z" fill="url(#paint15_linear_1_307)"/>
<path d="M15.8918 20.2903H14.4455V20.0053L15.1281 19.2824C15.2063 19.2008 15.276 19.1116 15.3361 19.0161C15.3777 18.9513 15.401 18.8765 15.4035 18.7997C15.4035 18.7066 15.3798 18.6331 15.3324 18.5794C15.285 18.5257 15.2172 18.4991 15.1292 18.4996C15.0345 18.4996 14.9598 18.532 14.9053 18.5969C14.8507 18.6617 14.8234 18.7469 14.8234 18.8524H14.4037C14.4025 18.7296 14.4344 18.6089 14.4961 18.5025C14.5573 18.3969 14.6475 18.3108 14.7562 18.2542C14.8736 18.1928 15.0047 18.1618 15.1373 18.1641C15.3547 18.1641 15.5235 18.2159 15.6439 18.3195C15.7642 18.4232 15.8244 18.5696 15.8244 18.7588C15.8226 18.8692 15.7948 18.9777 15.7431 19.0756C15.689 19.1831 15.5963 19.3084 15.4649 19.4513L14.9845 19.9539H15.8916L15.8918 20.2903Z" fill="url(#paint16_linear_1_307)"/>
<path d="M17.5684 19.4237C17.5684 19.7135 17.508 19.9352 17.3872 20.0889C17.2663 20.2426 17.0896 20.3193 16.8568 20.3191C16.6268 20.3191 16.451 20.2437 16.3292 20.0929C16.2074 19.9422 16.145 19.7262 16.1422 19.445V19.0595C16.1422 18.7668 16.2034 18.5446 16.3257 18.3929C16.448 18.2412 16.624 18.1653 16.8538 18.1653C17.0839 18.1653 17.2598 18.2404 17.3814 18.3907C17.5031 18.541 17.5654 18.7568 17.5684 19.0383V19.4237ZM17.1496 18.9993C17.1496 18.8255 17.1256 18.6989 17.0777 18.6196C17.0298 18.5403 16.9552 18.5006 16.8538 18.5006C16.7553 18.5006 16.6826 18.5383 16.6358 18.6137C16.589 18.6891 16.5644 18.807 16.5619 18.9676V19.4779C16.5619 19.6492 16.5853 19.7763 16.6321 19.8591C16.6789 19.9419 16.7541 19.9835 16.8575 19.9837C16.9599 19.9837 17.0338 19.9439 17.0792 19.8642C17.1247 19.7846 17.1481 19.6622 17.1496 19.4971V18.9993Z" fill="url(#paint17_linear_1_307)"/>
<path d="M17.8887 18.9065C17.8875 18.8762 17.8929 18.8461 17.9046 18.8182C17.9162 18.7902 17.9338 18.7651 17.9561 18.7446C18.0035 18.7045 18.0636 18.6826 18.1257 18.6826C18.1879 18.6826 18.248 18.7045 18.2953 18.7446C18.3176 18.765 18.3351 18.79 18.3467 18.8178C18.3584 18.8457 18.3638 18.8756 18.3628 18.9057C18.3638 18.9355 18.3584 18.9651 18.3469 18.9925C18.3354 19.02 18.3181 19.0447 18.2961 19.0649C18.2483 19.1045 18.188 19.1262 18.1257 19.1262C18.0635 19.1262 18.0032 19.1045 17.9554 19.0649C17.9335 19.0448 17.9162 19.0202 17.9047 18.9929C17.8932 18.9655 17.8878 18.9361 17.8887 18.9065ZM17.8887 20.0858C17.8876 20.0557 17.8931 20.0257 17.9047 19.9979C17.9163 19.9701 17.9339 19.9451 17.9561 19.9246C18.0035 19.8846 18.0636 19.8626 18.1257 19.8626C18.1879 19.8626 18.248 19.8846 18.2953 19.9246C18.3176 19.9451 18.3351 19.9701 18.3468 19.9979C18.3584 20.0257 18.3639 20.0557 18.3628 20.0858C18.3638 20.1155 18.3584 20.1451 18.3469 20.1726C18.3354 20.2 18.3181 20.2247 18.2961 20.2449C18.2482 20.2844 18.188 20.306 18.1257 20.306C18.0635 20.306 18.0033 20.2844 17.9554 20.2449C17.9334 20.2247 17.9161 20.2 17.9046 20.1726C17.8931 20.1451 17.8877 20.1155 17.8887 20.0858Z" fill="url(#paint18_linear_1_307)"/>
<path d="M18.751 19.2586L18.8727 18.194H20.055V18.5409H19.2161L19.164 18.9915C19.2615 18.9393 19.3706 18.9121 19.4814 18.9124C19.6824 18.9124 19.8399 18.9743 19.9538 19.0981C20.0677 19.222 20.1247 19.3952 20.1249 19.618C20.127 19.7443 20.0973 19.8693 20.0386 19.9814C19.9829 20.0871 19.897 20.1741 19.7916 20.2314C19.6843 20.2902 19.5577 20.3197 19.4118 20.3199C19.2891 20.3209 19.1678 20.2946 19.0567 20.2428C18.9522 20.1954 18.8628 20.1205 18.7981 20.0262C18.7344 19.9319 18.6994 19.8214 18.6974 19.7079H19.1118C19.1206 19.7953 19.1514 19.8632 19.2041 19.9116C19.2568 19.9601 19.3257 19.9846 19.4107 19.9851C19.5052 19.9851 19.5782 19.9512 19.6294 19.8836C19.6806 19.8159 19.706 19.7196 19.7055 19.5948C19.7055 19.4759 19.676 19.3847 19.617 19.3213C19.558 19.258 19.4745 19.2263 19.3663 19.2263C19.2668 19.2263 19.1861 19.2521 19.1243 19.3039L19.0837 19.3406L18.751 19.2586Z" fill="url(#paint19_linear_1_307)"/>
<path d="M20.4539 19.2586L20.5756 18.194H21.758V18.5409H20.9191L20.8668 18.9915C20.9644 18.9393 21.0735 18.9121 21.1844 18.9124C21.3852 18.9124 21.5427 18.9743 21.6567 19.0981C21.7708 19.222 21.8278 19.3952 21.8278 19.618C21.8299 19.7443 21.8003 19.8693 21.7415 19.9814C21.6858 20.0872 21.5998 20.1742 21.4944 20.2314C21.3872 20.2902 21.2607 20.3197 21.1147 20.3199C20.992 20.3209 20.8707 20.2946 20.7596 20.2428C20.6551 20.1954 20.5657 20.1205 20.501 20.0262C20.4373 19.9319 20.4022 19.8214 20.4001 19.7079H20.814C20.8227 19.7953 20.8535 19.8632 20.9063 19.9116C20.9592 19.9601 21.028 19.9846 21.1129 19.9851C21.2076 19.9851 21.2804 19.9513 21.3318 19.8836C21.3831 19.8158 21.4085 19.7202 21.4085 19.5963C21.4085 19.4774 21.379 19.3862 21.3201 19.3228C21.2613 19.2594 21.1777 19.2277 21.0695 19.2277C20.9699 19.2277 20.8893 19.2536 20.8274 19.3054L20.7868 19.3421L20.4539 19.2586Z" fill="url(#paint20_linear_1_307)"/>
<path d="M33.8812 26.4936H13.0299C12.7026 26.4936 12.4373 26.7572 12.4373 27.0824V34.0553C12.4373 34.3805 12.7026 34.6442 13.0299 34.6442H33.8812C34.2085 34.6442 34.4739 34.3805 34.4739 34.0553V27.0824C34.4739 26.7572 34.2085 26.4936 33.8812 26.4936Z" fill="url(#paint21_linear_1_307)"/>
<path d="M14.556 32.127L14.7989 32.8083L15.0403 32.127H15.2964V33.0666H15.1008V32.8096L15.1203 32.3663L14.8648 33.0666H14.7311L14.4769 32.367L14.4963 32.8096V33.0666H14.3014V32.127H14.556Z" fill="url(#paint22_linear_1_307)"/>
<path d="M15.4256 32.7108C15.4244 32.6468 15.4382 32.5834 15.4659 32.5256C15.4911 32.4732 15.5314 32.4295 15.5817 32.3999C15.6351 32.3694 15.6958 32.354 15.7574 32.3553C15.7999 32.3536 15.8424 32.3604 15.8823 32.3753C15.9221 32.3901 15.9586 32.4127 15.9896 32.4417C16.0497 32.4996 16.0832 32.5779 16.0899 32.6767L16.0912 32.7244C16.0912 32.8316 16.0611 32.9172 16.0009 32.9814C15.9407 33.0455 15.8599 33.0783 15.7587 33.0799C15.6575 33.0799 15.5766 33.0477 15.5161 32.9832C15.4557 32.9187 15.4255 32.8309 15.4256 32.7198V32.7108ZM15.6133 32.7242C15.6133 32.7905 15.6256 32.8413 15.6503 32.8764C15.6629 32.8927 15.6791 32.9059 15.6977 32.915C15.7163 32.924 15.7367 32.9288 15.7574 32.9288C15.7781 32.9288 15.7985 32.924 15.8171 32.915C15.8357 32.9059 15.8519 32.8927 15.8645 32.8764C15.89 32.8416 15.9028 32.7862 15.9028 32.7101C15.9028 32.6449 15.89 32.5946 15.8645 32.5588C15.8526 32.5415 15.8364 32.5275 15.8176 32.5181C15.7987 32.5087 15.7778 32.5042 15.7567 32.5051C15.7358 32.5042 15.7151 32.5086 15.6964 32.518C15.6778 32.5273 15.6619 32.5413 15.6503 32.5585C15.6256 32.5944 15.6133 32.6497 15.6133 32.7242Z" fill="url(#paint23_linear_1_307)"/>
<path d="M17.9807 32.2837H17.6919V33.0666H17.4961V32.2837H17.2103V32.127H17.9807V32.2837Z" fill="url(#paint24_linear_1_307)"/>
<path d="M18.458 32.9955C18.4347 33.0233 18.4052 33.0453 18.3718 33.0598C18.3384 33.0744 18.3021 33.0811 18.2657 33.0794C18.1905 33.0794 18.1329 33.0579 18.0934 33.0147C18.0538 32.9716 18.0335 32.9088 18.0326 32.8257V32.3683H18.2203V32.8198C18.2203 32.8932 18.2537 32.9299 18.3204 32.9299C18.384 32.9299 18.4277 32.908 18.4516 32.8641V32.3685H18.6398V33.066H18.4632L18.458 32.9955Z" fill="url(#paint25_linear_1_307)"/>
<path d="M20.5797 32.7954L20.707 32.127H20.9013L20.6915 33.0666H20.4953L20.3414 32.4375L20.1875 33.0662H19.9913L19.7816 32.1266H19.9758L20.1036 32.7938L20.2595 32.1266H20.4245L20.5797 32.7954Z" fill="url(#paint26_linear_1_307)"/>
<path d="M21.2977 33.0799C21.1946 33.0799 21.1108 33.0486 21.0461 32.9858C20.9814 32.923 20.949 32.8393 20.9489 32.7347V32.7163C20.9478 32.6513 20.9618 32.5869 20.9899 32.5282C21.015 32.475 21.0553 32.4303 21.1058 32.3997C21.1576 32.3693 21.2168 32.3537 21.277 32.3547C21.3731 32.3547 21.4487 32.3849 21.5039 32.4452C21.5591 32.5055 21.5867 32.5912 21.5868 32.7022V32.7784H21.1392C21.1435 32.8206 21.1632 32.8598 21.1946 32.8885C21.2265 32.9165 21.2681 32.9313 21.3106 32.9298C21.3431 32.9312 21.3755 32.9248 21.405 32.9112C21.4345 32.8976 21.4603 32.8772 21.4802 32.8516L21.5726 32.9542C21.5434 32.9946 21.5039 33.0266 21.4582 33.0469C21.4079 33.0696 21.353 33.0809 21.2977 33.0799ZM21.2759 32.5056C21.2591 32.5049 21.2422 32.5078 21.2266 32.5142C21.211 32.5205 21.1969 32.5301 21.1854 32.5423C21.1598 32.5728 21.1443 32.6103 21.1409 32.6499H21.4019V32.635C21.4034 32.5998 21.3913 32.5654 21.3681 32.5388C21.3559 32.5272 21.3414 32.5182 21.3256 32.5125C21.3097 32.5067 21.2928 32.5044 21.2759 32.5056Z" fill="url(#paint27_linear_1_307)"/>
<path d="M27.1281 31.6024H25.2778C25.1896 31.6024 25.1182 31.6734 25.1182 31.7609V33.5994C25.1182 33.687 25.1896 33.758 25.2778 33.758H27.1281C27.2163 33.758 27.2878 33.687 27.2878 33.5994V31.7609C27.2878 31.6734 27.2163 31.6024 27.1281 31.6024Z" fill="url(#paint28_linear_1_307)"/>
<path d="M23.5013 32.2837H23.2116V33.0666H23.0167V32.2837H22.731V32.127H23.5013V32.2837Z" fill="url(#paint29_linear_1_307)"/>
<path d="M23.783 32.4443C23.8053 32.4161 23.8338 32.3934 23.8664 32.378C23.8989 32.3625 23.9347 32.3548 23.9707 32.3553C24.1232 32.3553 24.2005 32.4433 24.2026 32.6192V33.0666H24.0149V32.6235C24.0175 32.5916 24.0082 32.5599 23.9888 32.5344C23.9715 32.5161 23.9426 32.5056 23.9026 32.5056C23.8786 32.504 23.8547 32.5091 23.8336 32.5203C23.8125 32.5315 23.7949 32.5485 23.783 32.5691V33.0666H23.5953V32.0754H23.783V32.4443Z" fill="url(#paint30_linear_1_307)"/>
<path d="M26.3144 32.6826H25.9403V33.0666H25.7454V32.127H26.3611V32.2837H25.9403V32.5264H26.3144V32.6826Z" fill="url(#paint31_linear_1_307)"/>
<path d="M26.8399 32.5431C26.8174 32.5399 26.7949 32.5382 26.7722 32.5379C26.7013 32.5379 26.6548 32.5618 26.6328 32.6095V33.0665H26.4451V32.3691H26.6222L26.6274 32.4522C26.6651 32.3882 26.7173 32.3561 26.7841 32.356C26.8038 32.3559 26.8235 32.3588 26.8424 32.3645L26.8399 32.5431Z" fill="url(#paint32_linear_1_307)"/>
<path d="M28.8395 32.82C28.8404 32.8039 28.8373 32.7878 28.8305 32.7731C28.8237 32.7584 28.8134 32.7456 28.8005 32.7358C28.7571 32.7082 28.7098 32.6873 28.6601 32.6737C28.6049 32.657 28.5512 32.6355 28.4998 32.6095C28.3925 32.5518 28.3388 32.4742 28.3387 32.3766C28.3381 32.3278 28.3532 32.2802 28.3819 32.2407C28.4136 32.1987 28.4566 32.1664 28.5059 32.1475C28.5635 32.1244 28.6253 32.113 28.6875 32.1139C28.7496 32.1129 28.8112 32.1254 28.8679 32.1506C28.918 32.1726 28.9606 32.2083 28.991 32.2536C29.0205 32.2984 29.0358 32.351 29.0349 32.4046H28.8401C28.8411 32.3859 28.838 32.3672 28.8309 32.3499C28.8239 32.3325 28.8131 32.3169 28.7992 32.3042C28.7668 32.2783 28.7257 32.2652 28.6841 32.2675C28.6449 32.2652 28.606 32.2757 28.5733 32.2974C28.5607 32.3064 28.5506 32.3184 28.5437 32.3321C28.5368 32.3459 28.5334 32.3612 28.5338 32.3766C28.5341 32.3922 28.5386 32.4076 28.5467 32.421C28.5548 32.4345 28.5664 32.4456 28.5801 32.4533C28.6227 32.479 28.6687 32.4986 28.7168 32.5115C28.8277 32.5445 28.9084 32.5856 28.959 32.6346C28.9839 32.6582 29.0035 32.6868 29.0166 32.7184C29.0297 32.75 29.036 32.784 29.0351 32.8182C29.0367 32.8551 29.029 32.8919 29.0129 32.9252C28.9968 32.9586 28.9727 32.9875 28.9428 33.0094C28.8812 33.0557 28.7979 33.0788 28.6928 33.0788C28.6245 33.0797 28.5567 33.0662 28.494 33.0392C28.439 33.0165 28.3916 32.9788 28.3573 32.9303C28.3255 32.883 28.3091 32.8271 28.3102 32.7703H28.5057C28.5057 32.8739 28.5681 32.9258 28.6928 32.9259C28.731 32.9281 28.769 32.9183 28.8013 32.8978C28.8136 32.889 28.8235 32.8773 28.8302 32.8637C28.8369 32.8501 28.8401 32.8351 28.8395 32.82Z" fill="url(#paint33_linear_1_307)"/>
<path d="M29.5616 33.0665C29.5522 33.0467 29.5459 33.0256 29.5431 33.0039C29.5209 33.0286 29.4935 33.0482 29.4629 33.0613C29.4322 33.0743 29.3991 33.0805 29.3658 33.0793C29.3032 33.0816 29.2422 33.0603 29.1947 33.0199C29.1729 33.0015 29.1554 32.9786 29.1437 32.9527C29.1319 32.9268 29.1261 32.8987 29.1267 32.8703C29.1251 32.8373 29.1318 32.8044 29.1463 32.7746C29.1608 32.7448 29.1826 32.7192 29.2097 32.7C29.2648 32.6603 29.3449 32.6403 29.4498 32.6399H29.5363V32.5999C29.5378 32.5719 29.5288 32.5443 29.5111 32.5225C29.501 32.5121 29.4887 32.5041 29.475 32.4991C29.4614 32.4941 29.4468 32.4922 29.4323 32.4935C29.4057 32.4919 29.3795 32.5 29.3584 32.516C29.3494 32.5236 29.3423 32.5331 29.3376 32.5438C29.3329 32.5546 29.3308 32.5662 29.3314 32.5779H29.1437C29.1435 32.5375 29.1565 32.4982 29.1807 32.4658C29.208 32.4296 29.2448 32.4015 29.2871 32.3846C29.3361 32.3645 29.3887 32.3545 29.4417 32.3553C29.5279 32.3553 29.5966 32.3769 29.6479 32.4202C29.6991 32.4636 29.7245 32.5243 29.7241 32.6025V32.9052C29.7241 32.9714 29.7334 33.0215 29.752 33.0555V33.0665H29.5616ZM29.4064 32.9367C29.4331 32.937 29.4594 32.9307 29.4831 32.9184C29.5049 32.9074 29.523 32.8902 29.535 32.869V32.7495H29.4648C29.3709 32.7495 29.3209 32.7818 29.3148 32.8462V32.8573C29.3145 32.868 29.3165 32.8788 29.3208 32.8887C29.3251 32.8986 29.3315 32.9075 29.3395 32.9147C29.3582 32.9302 29.3821 32.9381 29.4064 32.9367Z" fill="url(#paint34_linear_1_307)"/>
<path d="M31.5946 32.82C31.5954 32.8039 31.5923 32.7878 31.5856 32.7731C31.5788 32.7584 31.5685 32.7456 31.5556 32.7358C31.5122 32.7082 31.4649 32.6873 31.4152 32.6737C31.3599 32.657 31.3063 32.6355 31.2548 32.6095C31.1474 32.5518 31.0937 32.4742 31.0937 32.3766C31.0931 32.3278 31.1083 32.2802 31.137 32.2407C31.1688 32.1987 31.2118 32.1664 31.2611 32.1475C31.3187 32.1244 31.3804 32.1129 31.4425 32.1139C31.5047 32.1129 31.5663 32.1254 31.623 32.1506C31.6731 32.1726 31.7158 32.2083 31.7462 32.2536C31.7756 32.2985 31.7909 32.3511 31.79 32.4046H31.5951C31.5962 32.3859 31.5931 32.3672 31.586 32.3499C31.579 32.3325 31.5681 32.3169 31.5543 32.3042C31.5219 32.2783 31.4809 32.2652 31.4394 32.2675C31.4001 32.2652 31.3612 32.2757 31.3285 32.2974C31.316 32.3064 31.3058 32.3184 31.2989 32.3321C31.292 32.3459 31.2886 32.3612 31.289 32.3766C31.2894 32.3922 31.2939 32.4075 31.302 32.421C31.3101 32.4344 31.3216 32.4456 31.3354 32.4533C31.378 32.479 31.424 32.4986 31.4721 32.5115C31.5829 32.5445 31.6637 32.5856 31.7145 32.6346C31.7393 32.6583 31.7588 32.6868 31.7719 32.7184C31.785 32.75 31.7913 32.784 31.7904 32.8182C31.7919 32.8551 31.7843 32.8919 31.7682 32.9252C31.7521 32.9586 31.728 32.9875 31.698 33.0094C31.6364 33.0557 31.5531 33.0788 31.4481 33.0788C31.3797 33.0797 31.312 33.0662 31.2493 33.0392C31.1943 33.0165 31.1468 32.9788 31.1126 32.9303C31.0808 32.883 31.0643 32.8271 31.0655 32.7703H31.2609C31.2609 32.8739 31.3233 32.9258 31.4481 32.9259C31.4863 32.9281 31.5242 32.9183 31.5565 32.8978C31.5688 32.889 31.5787 32.8772 31.5853 32.8637C31.592 32.8501 31.5951 32.8351 31.5946 32.82Z" fill="url(#paint35_linear_1_307)"/>
<path d="M32.3305 32.9955C32.2842 33.0514 32.2201 33.0794 32.1382 33.0794C32.063 33.0794 32.0053 33.0579 31.9658 33.0148C31.9263 32.9716 31.906 32.9088 31.905 32.8257V32.3683H32.0927V32.8198C32.0927 32.8932 32.1262 32.93 32.1929 32.93C32.2564 32.93 32.3001 32.908 32.324 32.8641V32.3685H32.5123V33.066H32.3357L32.3305 32.9955Z" fill="url(#paint36_linear_1_307)"/>
<path d="M15.8918 30.2261H14.4455V29.9412L15.1281 29.2184C15.2063 29.1368 15.276 29.0476 15.3361 28.9521C15.3776 28.8874 15.4009 28.8127 15.4035 28.736C15.4035 28.6429 15.3798 28.5695 15.3324 28.5158C15.285 28.4621 15.2172 28.4354 15.1292 28.4357C15.0345 28.4357 14.9598 28.4682 14.9053 28.533C14.8507 28.5979 14.8234 28.683 14.8234 28.7885H14.4037C14.4025 28.6658 14.4344 28.545 14.4961 28.4387C14.5574 28.3331 14.6476 28.247 14.7562 28.1903C14.8736 28.1291 15.0047 28.0981 15.1373 28.1004C15.3547 28.1004 15.5235 28.1522 15.6439 28.2559C15.7642 28.3595 15.8244 28.5059 15.8244 28.6949C15.8226 28.8054 15.7948 28.9139 15.7431 29.0117C15.689 29.1193 15.5963 29.2446 15.4649 29.3876L14.9845 29.8902H15.8916L15.8918 30.2261Z" fill="url(#paint37_linear_1_307)"/>
<path d="M16.5739 28.9936H16.797C16.9034 28.9936 16.9822 28.9672 17.0333 28.9144C17.0844 28.8617 17.11 28.7916 17.1102 28.7041C17.1102 28.6197 17.0848 28.554 17.034 28.507C16.9833 28.46 16.9135 28.4364 16.8246 28.4361C16.7518 28.4337 16.6804 28.4569 16.6232 28.5016C16.5972 28.5218 16.5763 28.5478 16.5622 28.5774C16.5481 28.607 16.5412 28.6396 16.5421 28.6723H16.1231C16.1219 28.5677 16.153 28.4652 16.2123 28.3787C16.2748 28.2891 16.3611 28.2186 16.4615 28.1749C16.5723 28.1251 16.6928 28.1 16.8144 28.1015C17.0377 28.1015 17.2126 28.1545 17.3391 28.2605C17.4655 28.3664 17.5288 28.5126 17.529 28.699C17.5291 28.7945 17.498 28.8875 17.4405 28.964C17.381 29.0451 17.301 29.1091 17.2086 29.1496C17.3276 29.1919 17.4163 29.2553 17.4747 29.3397C17.5342 29.4282 17.5648 29.5329 17.5622 29.6393C17.5622 29.8254 17.4939 29.9746 17.3572 30.087C17.2205 30.1993 17.0395 30.2555 16.8144 30.2555C16.6038 30.2555 16.4314 30.2004 16.2971 30.0903C16.1629 29.9801 16.0959 29.8342 16.0963 29.6525H16.5151C16.5142 29.6893 16.5217 29.7259 16.5372 29.7593C16.5526 29.7928 16.5756 29.8223 16.6043 29.8456C16.666 29.8961 16.744 29.9227 16.8238 29.9203C16.9233 29.9203 17.0013 29.8942 17.0579 29.8419C17.0862 29.8153 17.1084 29.7829 17.123 29.747C17.1376 29.7111 17.1443 29.6725 17.1427 29.6338C17.1427 29.4245 17.0267 29.3199 16.7948 29.3199H16.5731L16.5739 28.9936Z" fill="url(#paint38_linear_1_307)"/>
<path d="M17.8887 28.8425C17.8876 28.8123 17.8931 28.7823 17.9047 28.7545C17.9163 28.7266 17.9339 28.7016 17.9561 28.6811C18.0035 28.6412 18.0636 28.6193 18.1257 28.6193C18.1878 28.6193 18.2479 28.6412 18.2953 28.6811C18.3175 28.7016 18.3351 28.7266 18.3467 28.7545C18.3583 28.7823 18.3638 28.8123 18.3627 28.8425C18.3637 28.8722 18.3583 28.9017 18.3468 28.9292C18.3353 28.9566 18.318 28.9812 18.296 29.0014C18.2482 29.041 18.1879 29.0627 18.1257 29.0627C18.0635 29.0627 18.0032 29.041 17.9554 29.0014C17.9334 28.9812 17.9161 28.9566 17.9046 28.9292C17.8931 28.9017 17.8877 28.8722 17.8887 28.8425ZM17.8887 30.0216C17.8876 29.9915 17.8931 29.9615 17.9047 29.9337C17.9164 29.9059 17.9339 29.8809 17.9561 29.8604C18.0035 29.8205 18.0636 29.7986 18.1257 29.7986C18.1878 29.7986 18.2479 29.8205 18.2953 29.8604C18.3175 29.8809 18.3351 29.9059 18.3467 29.9337C18.3583 29.9615 18.3638 29.9915 18.3627 30.0216C18.3638 30.0513 18.3584 30.0809 18.3469 30.1084C18.3353 30.1358 18.318 30.1605 18.296 30.1807C18.2482 30.2203 18.1879 30.242 18.1257 30.242C18.0635 30.242 18.0032 30.2203 17.9554 30.1807C17.9334 30.1605 17.9161 30.1358 17.9046 30.1084C17.893 30.0809 17.8876 30.0513 17.8887 30.0216Z" fill="url(#paint39_linear_1_307)"/>
<path d="M19.9272 29.437H20.1674V29.7725H19.9272V30.2261H19.509V29.7725H18.6438L18.6254 29.5104L19.5049 28.1296H19.9272V29.437ZM19.0418 29.437H19.5084V28.6969L19.4809 28.7445L19.0418 29.437Z" fill="url(#paint40_linear_1_307)"/>
<path d="M20.4539 29.1953L20.5756 28.1296H21.758V28.4767H20.9191L20.8668 28.9273C20.9644 28.8751 21.0735 28.8479 21.1844 28.8482C21.3852 28.8482 21.5427 28.9101 21.6567 29.0339C21.7708 29.1578 21.8278 29.331 21.8278 29.5537C21.8299 29.6802 21.8003 29.8052 21.7415 29.9174C21.6856 30.0228 21.5996 30.1094 21.4944 30.1664C21.3872 30.2255 21.2607 30.255 21.1147 30.2549C20.9921 30.2559 20.8707 30.2297 20.7596 30.178C20.6551 30.1305 20.5657 30.0556 20.501 29.9612C20.4373 29.867 20.4022 29.7565 20.4001 29.643H20.814C20.8227 29.7303 20.8535 29.7982 20.9063 29.8467C20.9592 29.8952 21.028 29.9196 21.1129 29.9201C21.2076 29.9201 21.2804 29.8863 21.3318 29.8186C21.3831 29.7509 21.4085 29.6553 21.4085 29.5314C21.4085 29.4124 21.379 29.3213 21.3201 29.2579C21.2613 29.1945 21.1777 29.1628 21.0695 29.1628C20.9699 29.1628 20.8893 29.1887 20.8274 29.2406L20.7868 29.2773L20.4539 29.1953Z" fill="url(#paint41_linear_1_307)"/>
<path d="M33.8343 10.8886H32.0616C31.7085 10.8886 31.4224 11.1729 31.4224 11.5237V13.2851C31.4224 13.6358 31.7085 13.9201 32.0616 13.9201H33.8343C34.1873 13.9201 34.4735 13.6358 34.4735 13.2851V11.5237C34.4735 11.1729 34.1873 10.8886 33.8343 10.8886Z" fill="url(#paint42_linear_1_307)"/>
<path d="M29.1685 10.8886H27.3958C27.0428 10.8886 26.7566 11.1729 26.7566 11.5237V13.2851C26.7566 13.6358 27.0428 13.9201 27.3958 13.9201H29.1685C29.5216 13.9201 29.8077 13.6358 29.8077 13.2851V11.5237C29.8077 11.1729 29.5216 10.8886 29.1685 10.8886Z" fill="url(#paint43_linear_1_307)"/>
<path d="M28.2086 13.237C28.0429 13.237 27.8809 13.1882 27.743 13.0967C27.6052 13.0053 27.4978 12.8752 27.4343 12.7231C27.3709 12.571 27.3543 12.4036 27.3866 12.242C27.4189 12.0805 27.4987 11.9322 27.6159 11.8157C27.733 11.6992 27.8824 11.6199 28.0449 11.5878C28.2075 11.5556 28.376 11.5721 28.5291 11.6351C28.6822 11.6981 28.8131 11.8049 28.9052 11.9418C28.9973 12.0787 29.0464 12.2397 29.0464 12.4044C29.0462 12.6251 28.9579 12.8367 28.8008 12.9928C28.6437 13.1488 28.4308 13.2367 28.2086 13.237ZM28.2086 11.8759C28.1034 11.8759 28.0006 11.9068 27.9131 11.9649C27.8256 12.0229 27.7574 12.1055 27.7171 12.202C27.6769 12.2986 27.6663 12.4048 27.6868 12.5073C27.7073 12.6099 27.7579 12.704 27.8323 12.778C27.9067 12.8519 28.0015 12.9022 28.1046 12.9226C28.2078 12.943 28.3148 12.9326 28.412 12.8926C28.5092 12.8526 28.5922 12.7849 28.6507 12.698C28.7091 12.6111 28.7403 12.5089 28.7403 12.4044C28.7402 12.2643 28.6841 12.13 28.5845 12.0309C28.4848 11.9319 28.3496 11.8761 28.2086 11.8759Z" fill="url(#paint44_linear_1_307)"/>
<path d="M33.1531 12.4044L33.6471 11.9138C33.6606 11.9004 33.6713 11.8844 33.6786 11.8669C33.6859 11.8494 33.6896 11.8307 33.6896 11.8117C33.6896 11.7928 33.6859 11.774 33.6786 11.7565C33.6713 11.739 33.6606 11.7231 33.6471 11.7097C33.6336 11.6962 33.6176 11.6856 33.6 11.6784C33.5823 11.6711 33.5634 11.6674 33.5444 11.6674C33.5253 11.6674 33.5064 11.6711 33.4888 11.6784C33.4712 11.6856 33.4551 11.6962 33.4417 11.7097L32.9479 12.2005L32.4541 11.7097C32.4408 11.6953 32.4247 11.6838 32.4069 11.6758C32.389 11.6677 32.3697 11.6634 32.3501 11.663C32.3305 11.6626 32.311 11.6661 32.2928 11.6734C32.2747 11.6807 32.2581 11.6916 32.2443 11.7054C32.2305 11.7192 32.2196 11.7356 32.2123 11.7537C32.205 11.7718 32.2015 11.7911 32.2019 11.8106C32.2024 11.8301 32.2068 11.8492 32.2149 11.867C32.2231 11.8847 32.2347 11.9006 32.2492 11.9138L32.743 12.4044L32.2492 12.895C32.2234 12.9223 32.2093 12.9586 32.2099 12.996C32.2105 13.0335 32.2258 13.0692 32.2524 13.0957C32.2791 13.1222 32.3151 13.1374 32.3528 13.138C32.3905 13.1386 32.4269 13.1246 32.4544 13.0989L32.9482 12.6083L33.442 13.0989C33.4554 13.1126 33.4715 13.1235 33.4891 13.1309C33.5068 13.1384 33.5258 13.1423 33.545 13.1424C33.5642 13.1425 33.5833 13.1389 33.601 13.1316C33.6188 13.1244 33.6349 13.1137 33.6485 13.1002C33.6621 13.0867 33.6729 13.0707 33.6802 13.053C33.6875 13.0354 33.6912 13.0165 33.6911 12.9974C33.691 12.9783 33.6871 12.9594 33.6796 12.9419C33.6721 12.9243 33.6612 12.9084 33.6474 12.895L33.1531 12.4044Z" fill="url(#paint45_linear_1_307)"/>
<path d="M14.5862 21.5737H7.24545C7.09096 21.5737 6.94281 21.6346 6.83357 21.7432C6.72433 21.8517 6.66296 21.9989 6.66296 22.1524V25.6215C6.66296 25.775 6.72433 25.9222 6.83357 26.0308C6.94281 26.1393 7.09096 26.2003 7.24545 26.2003H10.4739C10.6345 26.2002 10.7914 26.2485 10.9238 26.3388L13.0599 27.7948C13.1011 27.8229 13.1493 27.8393 13.1992 27.8422C13.2491 27.8451 13.2989 27.8344 13.3431 27.8113C13.3874 27.7881 13.4244 27.7534 13.4502 27.7109C13.476 27.6683 13.4897 27.6196 13.4896 27.5699V26.3937C13.4896 26.3683 13.4947 26.3431 13.5045 26.3196C13.5143 26.2962 13.5286 26.2748 13.5467 26.2569C13.5648 26.2389 13.5863 26.2246 13.61 26.2149C13.6336 26.2052 13.6589 26.2002 13.6845 26.2003H14.5862C14.7407 26.2003 14.8889 26.1393 14.9981 26.0308C15.1074 25.9222 15.1687 25.775 15.1687 25.6215V22.1524C15.1687 22.0764 15.1537 22.0011 15.1244 21.9309C15.0951 21.8607 15.0522 21.7969 14.9981 21.7432C14.944 21.6894 14.8798 21.6468 14.8091 21.6177C14.7385 21.5886 14.6627 21.5737 14.5862 21.5737Z" fill="url(#paint46_linear_1_307)"/>
<path d="M8.51372 24.54C8.92438 24.54 9.25729 24.2093 9.25729 23.8012C9.25729 23.3932 8.92438 23.0624 8.51372 23.0624C8.10305 23.0624 7.77014 23.3932 7.77014 23.8012C7.77014 24.2093 8.10305 24.54 8.51372 24.54Z" fill="url(#paint47_linear_1_307)"/>
<path d="M10.9161 24.54C11.3267 24.54 11.6596 24.2093 11.6596 23.8012C11.6596 23.3932 11.3267 23.0624 10.9161 23.0624C10.5054 23.0624 10.1725 23.3932 10.1725 23.8012C10.1725 24.2093 10.5054 24.54 10.9161 24.54Z" fill="url(#paint48_linear_1_307)"/>
<path d="M13.318 24.54C13.7287 24.54 14.0616 24.2093 14.0616 23.8012C14.0616 23.3932 13.7287 23.0624 13.318 23.0624C12.9074 23.0624 12.5745 23.3932 12.5745 23.8012C12.5745 24.2093 12.9074 24.54 13.318 24.54Z" fill="url(#paint49_linear_1_307)"/>
<path d="M33.4815 34.6442C36.9637 34.6442 39.7866 31.8394 39.7866 28.3796C39.7866 24.9197 36.9637 22.115 33.4815 22.115C29.9993 22.115 27.1764 24.9197 27.1764 28.3796C27.1764 31.8394 29.9993 34.6442 33.4815 34.6442Z" fill="url(#paint50_linear_1_307)"/>
<path d="M33.4815 33.4492C36.2996 33.4492 38.584 31.1795 38.584 28.3796C38.584 25.5796 36.2996 23.3099 33.4815 23.3099C30.6635 23.3099 28.379 25.5796 28.379 28.3796C28.379 31.1795 30.6635 33.4492 33.4815 33.4492Z" fill="url(#paint51_linear_1_307)"/>
<path d="M31.9334 30.5614C31.9038 30.5615 31.8749 30.5533 31.8498 30.5378C31.8246 30.5223 31.8044 30.5002 31.7913 30.4739C31.7781 30.4476 31.7727 30.4182 31.7755 30.3889C31.7783 30.3597 31.7893 30.3319 31.8072 30.3085L33.3232 28.3262V24.2348C33.3246 24.1939 33.3419 24.1552 33.3715 24.1268C33.4011 24.0984 33.4406 24.0825 33.4818 24.0825C33.5229 24.0825 33.5625 24.0984 33.5921 24.1268C33.6217 24.1552 33.639 24.1939 33.6404 24.2348V28.3796C33.6404 28.414 33.629 28.4476 33.608 28.475L32.0597 30.4992C32.0449 30.5186 32.0258 30.5343 32.0039 30.5451C31.982 30.5559 31.9579 30.5615 31.9334 30.5614Z" fill="url(#paint52_linear_1_307)"/>
<path d="M33.482 29.0009C33.8274 29.0009 34.1074 28.7227 34.1074 28.3796C34.1074 28.0364 33.8274 27.7582 33.482 27.7582C33.1367 27.7582 32.8567 28.0364 32.8567 28.3796C32.8567 28.7227 33.1367 29.0009 33.482 29.0009Z" fill="url(#paint53_linear_1_307)"/>
<path d="M23.3927 11.2482H10.0675C9.62017 11.2482 9.25757 11.6084 9.25757 12.0529V13.1154C9.25757 13.5598 9.62017 13.9201 10.0675 13.9201H23.3927C23.84 13.9201 24.2026 13.5598 24.2026 13.1154V12.0529C24.2026 11.6084 23.84 11.2482 23.3927 11.2482Z" fill="url(#paint54_linear_1_307)"/>
<path d="M11.698 11.2482H10.0676C9.96128 11.2481 9.85594 11.2689 9.75766 11.3094C9.65938 11.3498 9.57007 11.4091 9.49485 11.4838C9.41962 11.5585 9.35995 11.6472 9.31924 11.7449C9.27852 11.8425 9.25757 11.9472 9.25757 12.0529V13.1154C9.25757 13.2211 9.27852 13.3258 9.31924 13.4234C9.35995 13.5211 9.41962 13.6098 9.49485 13.6845C9.57007 13.7592 9.65938 13.8185 9.75766 13.8589C9.85594 13.8993 9.96128 13.9201 10.0676 13.9201H11.698V11.2482Z" fill="url(#paint55_linear_1_307)"/>
<path d="M10.6188 13.0055C10.5077 13.0056 10.3992 12.9729 10.3068 12.9116C10.2145 12.8503 10.1425 12.7631 10.1001 12.6612C10.0576 12.5593 10.0465 12.4471 10.0682 12.3389C10.0899 12.2307 10.1434 12.1313 10.222 12.0533C10.3006 11.9754 10.4007 11.9223 10.5096 11.9009C10.6186 11.8794 10.7314 11.8906 10.834 11.933C10.9365 11.9753 11.0241 12.0469 11.0857 12.1387C11.1473 12.2306 11.18 12.3385 11.1798 12.4488C11.1795 12.5965 11.1202 12.7379 11.015 12.8423C10.9099 12.9466 10.7674 13.0053 10.6188 13.0055ZM10.6188 12.0004C10.5297 12.0004 10.4427 12.0265 10.3686 12.0757C10.2945 12.1248 10.2368 12.1946 10.2026 12.2763C10.1685 12.358 10.1595 12.4479 10.1768 12.5347C10.1941 12.6215 10.2369 12.7013 10.2997 12.7639C10.3626 12.8266 10.4428 12.8693 10.5301 12.8867C10.6174 12.904 10.708 12.8953 10.7903 12.8616C10.8726 12.8279 10.943 12.7707 10.9926 12.6972C11.0422 12.6237 11.0688 12.5373 11.069 12.4488C11.0691 12.33 11.0217 12.2161 10.9373 12.132C10.8529 12.0479 10.7383 12.0006 10.6188 12.0004Z" fill="url(#paint56_linear_1_307)"/>
<path d="M10.2206 12.7581L9.77563 13.2001L9.85401 13.278L10.2989 12.8359L10.2206 12.7581Z" fill="url(#paint57_linear_1_307)"/>
<defs>
<linearGradient id="paint0_linear_1_307" x1="12.4373" y1="20.6329" x2="34.4739" y2="20.6329" gradientUnits="userSpaceOnUse">
<stop stop-color="#3B6ECC"/>
<stop offset="0.09" stop-color="#3460B8"/>
<stop offset="0.16" stop-color="#3058AD"/>
<stop offset="0.82" stop-color="#3058AD"/>
<stop offset="0.89" stop-color="#2852A5"/>
<stop offset="1" stop-color="#133F8E"/>
</linearGradient>
<linearGradient id="paint1_linear_1_307" x1="14.3014" y1="22.6609" x2="15.2964" y2="22.6609" gradientUnits="userSpaceOnUse">
<stop stop-color="#FDFEFF"/>
<stop offset="0.16" stop-color="#F2F6FE"/>
<stop offset="0.82" stop-color="#F2F6FE"/>
<stop offset="0.89" stop-color="#EAF0FB"/>
<stop offset="0.99" stop-color="#D4DFF1"/>
<stop offset="1" stop-color="#D1DDF0"/>
</linearGradient>
<linearGradient id="paint2_linear_1_307" x1="331.172" y1="491.144" x2="355.157" y2="491.144" gradientUnits="userSpaceOnUse">
<stop stop-color="#FDFEFF"/>
<stop offset="0.16" stop-color="#F2F6FE"/>
<stop offset="0.82" stop-color="#F2F6FE"/>
<stop offset="0.89" stop-color="#EAF0FB"/>
<stop offset="0.99" stop-color="#D4DFF1"/>
<stop offset="1" stop-color="#D1DDF0"/>
</linearGradient>
<linearGradient id="paint3_linear_1_307" x1="457.033" y1="625.282" x2="489.158" y2="625.282" gradientUnits="userSpaceOnUse">
<stop stop-color="#FDFEFF"/>
<stop offset="0.16" stop-color="#F2F6FE"/>
<stop offset="0.82" stop-color="#F2F6FE"/>
<stop offset="0.89" stop-color="#EAF0FB"/>
<stop offset="0.99" stop-color="#D4DFF1"/>
<stop offset="1" stop-color="#D1DDF0"/>
</linearGradient>
<linearGradient id="paint4_linear_1_307" x1="391.75" y1="484.19" x2="411.71" y2="484.19" gradientUnits="userSpaceOnUse">
<stop stop-color="#FDFEFF"/>
<stop offset="0.16" stop-color="#F2F6FE"/>
<stop offset="0.82" stop-color="#F2F6FE"/>
<stop offset="0.89" stop-color="#EAF0FB"/>
<stop offset="0.99" stop-color="#D4DFF1"/>
<stop offset="1" stop-color="#D1DDF0"/>
</linearGradient>
<linearGradient id="paint5_linear_1_307" x1="814.916" y1="625.282" x2="882.781" y2="625.282" gradientUnits="userSpaceOnUse">
<stop stop-color="#FDFEFF"/>
<stop offset="0.16" stop-color="#F2F6FE"/>
<stop offset="0.82" stop-color="#F2F6FE"/>
<stop offset="0.89" stop-color="#EAF0FB"/>
<stop offset="0.99" stop-color="#D4DFF1"/>
<stop offset="1" stop-color="#D1DDF0"/>
</linearGradient>
<linearGradient id="paint6_linear_1_307" x1="514.289" y1="492.118" x2="536.318" y2="492.118" gradientUnits="userSpaceOnUse">
<stop stop-color="#FDFEFF"/>
<stop offset="0.16" stop-color="#F2F6FE"/>
<stop offset="0.82" stop-color="#F2F6FE"/>
<stop offset="0.89" stop-color="#EAF0FB"/>
<stop offset="0.99" stop-color="#D4DFF1"/>
<stop offset="1" stop-color="#D1DDF0"/>
</linearGradient>
<linearGradient id="paint7_linear_1_307" x1="1870.97" y1="1414" x2="2125.77" y2="1414" gradientUnits="userSpaceOnUse">
<stop stop-color="#FDFEFF"/>
<stop offset="0.16" stop-color="#F2F6FE"/>
<stop offset="0.82" stop-color="#F2F6FE"/>
<stop offset="0.89" stop-color="#EAF0FB"/>
<stop offset="0.99" stop-color="#D4DFF1"/>
<stop offset="1" stop-color="#D1DDF0"/>
</linearGradient>
<linearGradient id="paint8_linear_1_307" x1="692.761" y1="625.282" x2="724.885" y2="625.282" gradientUnits="userSpaceOnUse">
<stop stop-color="#3B6ECC"/>
<stop offset="0.09" stop-color="#3460B8"/>
<stop offset="0.16" stop-color="#3058AD"/>
<stop offset="0.82" stop-color="#3058AD"/>
<stop offset="0.89" stop-color="#2852A5"/>
<stop offset="1" stop-color="#133F8E"/>
</linearGradient>
<linearGradient id="paint9_linear_1_307" x1="580.164" y1="656.443" x2="600.124" y2="656.443" gradientUnits="userSpaceOnUse">
<stop stop-color="#3B6ECC"/>
<stop offset="0.09" stop-color="#3460B8"/>
<stop offset="0.16" stop-color="#3058AD"/>
<stop offset="0.82" stop-color="#3058AD"/>
<stop offset="0.89" stop-color="#2852A5"/>
<stop offset="1" stop-color="#133F8E"/>
</linearGradient>
<linearGradient id="paint10_linear_1_307" x1="661.757" y1="625.282" x2="682.28" y2="625.282" gradientUnits="userSpaceOnUse">
<stop stop-color="#FDFEFF"/>
<stop offset="0.16" stop-color="#F2F6FE"/>
<stop offset="0.82" stop-color="#F2F6FE"/>
<stop offset="0.89" stop-color="#EAF0FB"/>
<stop offset="0.99" stop-color="#D4DFF1"/>
<stop offset="1" stop-color="#D1DDF0"/>
</linearGradient>
<linearGradient id="paint11_linear_1_307" x1="451.952" y1="482.425" x2="460.5" y2="482.425" gradientUnits="userSpaceOnUse">
<stop stop-color="#FDFEFF"/>
<stop offset="0.16" stop-color="#F2F6FE"/>
<stop offset="0.82" stop-color="#F2F6FE"/>
<stop offset="0.89" stop-color="#EAF0FB"/>
<stop offset="0.99" stop-color="#D4DFF1"/>
<stop offset="1" stop-color="#D1DDF0"/>
</linearGradient>
<linearGradient id="paint12_linear_1_307" x1="878.022" y1="641.815" x2="906.499" y2="641.815" gradientUnits="userSpaceOnUse">
<stop stop-color="#FDFEFF"/>
<stop offset="0.16" stop-color="#F2F6FE"/>
<stop offset="0.82" stop-color="#F2F6FE"/>
<stop offset="0.89" stop-color="#EAF0FB"/>
<stop offset="0.99" stop-color="#D4DFF1"/>
<stop offset="1" stop-color="#D1DDF0"/>
</linearGradient>
<linearGradient id="paint13_linear_1_307" x1="789.826" y1="491.723" x2="810.984" y2="491.723" gradientUnits="userSpaceOnUse">
<stop stop-color="#FDFEFF"/>
<stop offset="0.16" stop-color="#F2F6FE"/>
<stop offset="0.82" stop-color="#F2F6FE"/>
<stop offset="0.89" stop-color="#EAF0FB"/>
<stop offset="0.99" stop-color="#D4DFF1"/>
<stop offset="1" stop-color="#D1DDF0"/>
</linearGradient>
<linearGradient id="paint14_linear_1_307" x1="988.878" y1="641.815" x2="1017.35" y2="641.815" gradientUnits="userSpaceOnUse">
<stop stop-color="#FDFEFF"/>
<stop offset="0.16" stop-color="#F2F6FE"/>
<stop offset="0.82" stop-color="#F2F6FE"/>
<stop offset="0.89" stop-color="#EAF0FB"/>
<stop offset="0.99" stop-color="#D4DFF1"/>
<stop offset="1" stop-color="#D1DDF0"/>
</linearGradient>
<linearGradient id="paint15_linear_1_307" x1="861.619" y1="483.715" x2="881.579" y2="483.715" gradientUnits="userSpaceOnUse">
<stop stop-color="#FDFEFF"/>
<stop offset="0.16" stop-color="#F2F6FE"/>
<stop offset="0.82" stop-color="#F2F6FE"/>
<stop offset="0.89" stop-color="#EAF0FB"/>
<stop offset="0.99" stop-color="#D4DFF1"/>
<stop offset="1" stop-color="#D1DDF0"/>
</linearGradient>
<linearGradient id="paint16_linear_1_307" x1="637.902" y1="984.215" x2="757.783" y2="984.215" gradientUnits="userSpaceOnUse">
<stop stop-color="#FDFEFF"/>
<stop offset="0.16" stop-color="#F2F6FE"/>
<stop offset="0.82" stop-color="#F2F6FE"/>
<stop offset="0.89" stop-color="#EAF0FB"/>
<stop offset="0.99" stop-color="#D4DFF1"/>
<stop offset="1" stop-color="#D1DDF0"/>
</linearGradient>
<linearGradient id="paint17_linear_1_307" x1="747.947" y1="998.359" x2="858.049" y2="998.359" gradientUnits="userSpaceOnUse">
<stop stop-color="#FDFEFF"/>
<stop offset="0.16" stop-color="#F2F6FE"/>
<stop offset="0.82" stop-color="#F2F6FE"/>
<stop offset="0.89" stop-color="#EAF0FB"/>
<stop offset="0.99" stop-color="#D4DFF1"/>
<stop offset="1" stop-color="#D1DDF0"/>
</linearGradient>
<linearGradient id="paint18_linear_1_307" x1="306.13" y1="779.884" x2="318.302" y2="779.884" gradientUnits="userSpaceOnUse">
<stop stop-color="#FDFEFF"/>
<stop offset="0.16" stop-color="#F2F6FE"/>
<stop offset="0.82" stop-color="#F2F6FE"/>
<stop offset="0.89" stop-color="#EAF0FB"/>
<stop offset="0.99" stop-color="#D4DFF1"/>
<stop offset="1" stop-color="#D1DDF0"/>
</linearGradient>
<linearGradient id="paint19_linear_1_307" x1="948.667" y1="987.379" x2="1058.98" y2="987.379" gradientUnits="userSpaceOnUse">
<stop stop-color="#FDFEFF"/>
<stop offset="0.16" stop-color="#F2F6FE"/>
<stop offset="0.82" stop-color="#F2F6FE"/>
<stop offset="0.89" stop-color="#EAF0FB"/>
<stop offset="0.99" stop-color="#D4DFF1"/>
<stop offset="1" stop-color="#D1DDF0"/>
</linearGradient>
<linearGradient id="paint20_linear_1_307" x1="1082.09" y1="987.379" x2="1192.43" y2="987.379" gradientUnits="userSpaceOnUse">
<stop stop-color="#FDFEFF"/>
<stop offset="0.16" stop-color="#F2F6FE"/>
<stop offset="0.82" stop-color="#F2F6FE"/>
<stop offset="0.89" stop-color="#EAF0FB"/>
<stop offset="0.99" stop-color="#D4DFF1"/>
<stop offset="1" stop-color="#D1DDF0"/>
</linearGradient>
<linearGradient id="paint21_linear_1_307" x1="6899.98" y1="8765.55" x2="33186.3" y2="8765.55" gradientUnits="userSpaceOnUse">
<stop stop-color="#FDFEFF"/>
<stop offset="0.16" stop-color="#F2F6FE"/>
<stop offset="0.82" stop-color="#F2F6FE"/>
<stop offset="0.89" stop-color="#EAF0FB"/>
<stop offset="0.99" stop-color="#D4DFF1"/>
<stop offset="1" stop-color="#D1DDF0"/>
</linearGradient>
<linearGradient id="paint22_linear_1_307" x1="14.3014" y1="32.5967" x2="15.2964" y2="32.5967" gradientUnits="userSpaceOnUse">
<stop stop-color="#FCAB72"/>
<stop offset="0.03" stop-color="#F8A367"/>
<stop offset="0.11" stop-color="#EE8C48"/>
<stop offset="0.16" stop-color="#EA833D"/>
<stop offset="0.82" stop-color="#EA833D"/>
<stop offset="0.88" stop-color="#E77D35"/>
<stop offset="0.98" stop-color="#DE6C1F"/>
<stop offset="1" stop-color="#DB6719"/>
</linearGradient>
<linearGradient id="paint23_linear_1_307" x1="331.172" y1="894.424" x2="355.157" y2="894.424" gradientUnits="userSpaceOnUse">
<stop stop-color="#FCAB72"/>
<stop offset="0.03" stop-color="#F8A367"/>
<stop offset="0.11" stop-color="#EE8C48"/>
<stop offset="0.16" stop-color="#EA833D"/>
<stop offset="0.82" stop-color="#EA833D"/>
<stop offset="0.88" stop-color="#E77D35"/>
<stop offset="0.98" stop-color="#DE6C1F"/>
<stop offset="1" stop-color="#DB6719"/>
</linearGradient>
<linearGradient id="paint24_linear_1_307" x1="457.033" y1="1143.36" x2="489.158" y2="1143.36" gradientUnits="userSpaceOnUse">
<stop stop-color="#FCAB72"/>
<stop offset="0.03" stop-color="#F8A367"/>
<stop offset="0.11" stop-color="#EE8C48"/>
<stop offset="0.16" stop-color="#EA833D"/>
<stop offset="0.82" stop-color="#EA833D"/>
<stop offset="0.88" stop-color="#E77D35"/>
<stop offset="0.98" stop-color="#DE6C1F"/>
<stop offset="1" stop-color="#DB6719"/>
</linearGradient>
<linearGradient id="paint25_linear_1_307" x1="391.75" y1="878.569" x2="411.71" y2="878.569" gradientUnits="userSpaceOnUse">
<stop stop-color="#FCAB72"/>
<stop offset="0.03" stop-color="#F8A367"/>
<stop offset="0.11" stop-color="#EE8C48"/>
<stop offset="0.16" stop-color="#EA833D"/>
<stop offset="0.82" stop-color="#EA833D"/>
<stop offset="0.88" stop-color="#E77D35"/>
<stop offset="0.98" stop-color="#DE6C1F"/>
<stop offset="1" stop-color="#DB6719"/>
</linearGradient>
<linearGradient id="paint26_linear_1_307" x1="814.916" y1="1143.8" x2="882.781" y2="1143.8" gradientUnits="userSpaceOnUse">
<stop stop-color="#FCAB72"/>
<stop offset="0.03" stop-color="#F8A367"/>
<stop offset="0.11" stop-color="#EE8C48"/>
<stop offset="0.16" stop-color="#EA833D"/>
<stop offset="0.82" stop-color="#EA833D"/>
<stop offset="0.88" stop-color="#E77D35"/>
<stop offset="0.98" stop-color="#DE6C1F"/>
<stop offset="1" stop-color="#DB6719"/>
</linearGradient>
<linearGradient id="paint27_linear_1_307" x1="514.297" y1="894.937" x2="536.326" y2="894.937" gradientUnits="userSpaceOnUse">
<stop stop-color="#FCAB72"/>
<stop offset="0.03" stop-color="#F8A367"/>
<stop offset="0.11" stop-color="#EE8C48"/>
<stop offset="0.16" stop-color="#EA833D"/>
<stop offset="0.82" stop-color="#EA833D"/>
<stop offset="0.88" stop-color="#E77D35"/>
<stop offset="0.98" stop-color="#DE6C1F"/>
<stop offset="1" stop-color="#DB6719"/>
</linearGradient>
<linearGradient id="paint28_linear_1_307" x1="2192.52" y1="2590.8" x2="2447.34" y2="2590.8" gradientUnits="userSpaceOnUse">
<stop stop-color="#FCAB72"/>
<stop offset="0.03" stop-color="#F8A367"/>
<stop offset="0.11" stop-color="#EE8C48"/>
<stop offset="0.16" stop-color="#EA833D"/>
<stop offset="0.82" stop-color="#EA833D"/>
<stop offset="0.88" stop-color="#E77D35"/>
<stop offset="0.98" stop-color="#DE6C1F"/>
<stop offset="1" stop-color="#DB6719"/>
</linearGradient>
<linearGradient id="paint29_linear_1_307" x1="692.761" y1="1143.36" x2="724.885" y2="1143.36" gradientUnits="userSpaceOnUse">
<stop stop-color="#FCAB72"/>
<stop offset="0.03" stop-color="#F8A367"/>
<stop offset="0.11" stop-color="#EE8C48"/>
<stop offset="0.16" stop-color="#EA833D"/>
<stop offset="0.82" stop-color="#EA833D"/>
<stop offset="0.88" stop-color="#E77D35"/>
<stop offset="0.98" stop-color="#DE6C1F"/>
<stop offset="1" stop-color="#DB6719"/>
</linearGradient>
<linearGradient id="paint30_linear_1_307" x1="580.164" y1="1202.92" x2="600.124" y2="1202.92" gradientUnits="userSpaceOnUse">
<stop stop-color="#FCAB72"/>
<stop offset="0.03" stop-color="#F8A367"/>
<stop offset="0.11" stop-color="#EE8C48"/>
<stop offset="0.16" stop-color="#EA833D"/>
<stop offset="0.82" stop-color="#EA833D"/>
<stop offset="0.88" stop-color="#E77D35"/>
<stop offset="0.98" stop-color="#DE6C1F"/>
<stop offset="1" stop-color="#DB6719"/>
</linearGradient>
<linearGradient id="paint31_linear_1_307" x1="661.757" y1="1143.36" x2="682.28" y2="1143.36" gradientUnits="userSpaceOnUse">
<stop stop-color="#FDFEFF"/>
<stop offset="0.16" stop-color="#F2F6FE"/>
<stop offset="0.82" stop-color="#F2F6FE"/>
<stop offset="0.89" stop-color="#EAF0FB"/>
<stop offset="0.99" stop-color="#D4DFF1"/>
<stop offset="1" stop-color="#D1DDF0"/>
</linearGradient>
<linearGradient id="paint32_linear_1_307" x1="451.952" y1="877.081" x2="460.5" y2="877.081" gradientUnits="userSpaceOnUse">
<stop stop-color="#FDFEFF"/>
<stop offset="0.16" stop-color="#F2F6FE"/>
<stop offset="0.82" stop-color="#F2F6FE"/>
<stop offset="0.89" stop-color="#EAF0FB"/>
<stop offset="0.99" stop-color="#D4DFF1"/>
<stop offset="1" stop-color="#D1DDF0"/>
</linearGradient>
<linearGradient id="paint33_linear_1_307" x1="877.986" y1="1173.42" x2="906.462" y2="1173.42" gradientUnits="userSpaceOnUse">
<stop stop-color="#FCAB72"/>
<stop offset="0.03" stop-color="#F8A367"/>
<stop offset="0.11" stop-color="#EE8C48"/>
<stop offset="0.16" stop-color="#EA833D"/>
<stop offset="0.82" stop-color="#EA833D"/>
<stop offset="0.88" stop-color="#E77D35"/>
<stop offset="0.98" stop-color="#DE6C1F"/>
<stop offset="1" stop-color="#DB6719"/>
</linearGradient>
<linearGradient id="paint34_linear_1_307" x1="789.804" y1="893.699" x2="810.961" y2="893.699" gradientUnits="userSpaceOnUse">
<stop stop-color="#FCAB72"/>
<stop offset="0.03" stop-color="#F8A367"/>
<stop offset="0.11" stop-color="#EE8C48"/>
<stop offset="0.16" stop-color="#EA833D"/>
<stop offset="0.82" stop-color="#EA833D"/>
<stop offset="0.88" stop-color="#E77D35"/>
<stop offset="0.98" stop-color="#DE6C1F"/>
<stop offset="1" stop-color="#DB6719"/>
</linearGradient>
<linearGradient id="paint35_linear_1_307" x1="988.888" y1="1173.42" x2="1017.36" y2="1173.42" gradientUnits="userSpaceOnUse">
<stop stop-color="#FCAB72"/>
<stop offset="0.03" stop-color="#F8A367"/>
<stop offset="0.11" stop-color="#EE8C48"/>
<stop offset="0.16" stop-color="#EA833D"/>
<stop offset="0.82" stop-color="#EA833D"/>
<stop offset="0.88" stop-color="#E77D35"/>
<stop offset="0.98" stop-color="#DE6C1F"/>
<stop offset="1" stop-color="#DB6719"/>
</linearGradient>
<linearGradient id="paint36_linear_1_307" x1="861.619" y1="878.263" x2="881.579" y2="878.263" gradientUnits="userSpaceOnUse">
<stop stop-color="#FCAB72"/>
<stop offset="0.03" stop-color="#F8A367"/>
<stop offset="0.11" stop-color="#EE8C48"/>
<stop offset="0.16" stop-color="#EA833D"/>
<stop offset="0.82" stop-color="#EA833D"/>
<stop offset="0.88" stop-color="#E77D35"/>
<stop offset="0.98" stop-color="#DE6C1F"/>
<stop offset="1" stop-color="#DB6719"/>
</linearGradient>
<linearGradient id="paint37_linear_1_307" x1="637.902" y1="2144.61" x2="757.783" y2="2144.61" gradientUnits="userSpaceOnUse">
<stop stop-color="#FCAB72"/>
<stop offset="0.03" stop-color="#F8A367"/>
<stop offset="0.11" stop-color="#EE8C48"/>
<stop offset="0.16" stop-color="#EA833D"/>
<stop offset="0.82" stop-color="#EA833D"/>
<stop offset="0.88" stop-color="#E77D35"/>
<stop offset="0.98" stop-color="#DE6C1F"/>
<stop offset="1" stop-color="#DB6719"/>
</linearGradient>
<linearGradient id="paint38_linear_1_307" x1="764.797" y1="2174.4" x2="881.07" y2="2174.4" gradientUnits="userSpaceOnUse">
<stop stop-color="#FCAB72"/>
<stop offset="0.03" stop-color="#F8A367"/>
<stop offset="0.11" stop-color="#EE8C48"/>
<stop offset="0.16" stop-color="#EA833D"/>
<stop offset="0.82" stop-color="#EA833D"/>
<stop offset="0.88" stop-color="#E77D35"/>
<stop offset="0.98" stop-color="#DE6C1F"/>
<stop offset="1" stop-color="#DB6719"/>
</linearGradient>
<linearGradient id="paint39_linear_1_307" x1="306.099" y1="1667.88" x2="318.27" y2="1667.88" gradientUnits="userSpaceOnUse">
<stop stop-color="#FCAB72"/>
<stop offset="0.03" stop-color="#F8A367"/>
<stop offset="0.11" stop-color="#EE8C48"/>
<stop offset="0.16" stop-color="#EA833D"/>
<stop offset="0.82" stop-color="#EA833D"/>
<stop offset="0.88" stop-color="#E77D35"/>
<stop offset="0.98" stop-color="#DE6C1F"/>
<stop offset="1" stop-color="#DB6719"/>
</linearGradient>
<linearGradient id="paint40_linear_1_307" x1="1017.1" y1="2117.12" x2="1145.79" y2="2117.12" gradientUnits="userSpaceOnUse">
<stop stop-color="#FCAB72"/>
<stop offset="0.03" stop-color="#F8A367"/>
<stop offset="0.11" stop-color="#EE8C48"/>
<stop offset="0.16" stop-color="#EA833D"/>
<stop offset="0.82" stop-color="#EA833D"/>
<stop offset="0.88" stop-color="#E77D35"/>
<stop offset="0.98" stop-color="#DE6C1F"/>
<stop offset="1" stop-color="#DB6719"/>
</linearGradient>
<linearGradient id="paint41_linear_1_307" x1="1082.09" y1="2147.54" x2="1192.43" y2="2147.54" gradientUnits="userSpaceOnUse">
<stop stop-color="#FCAB72"/>
<stop offset="0.03" stop-color="#F8A367"/>
<stop offset="0.11" stop-color="#EE8C48"/>
<stop offset="0.16" stop-color="#EA833D"/>
<stop offset="0.82" stop-color="#EA833D"/>
<stop offset="0.88" stop-color="#E77D35"/>
<stop offset="0.98" stop-color="#DE6C1F"/>
<stop offset="1" stop-color="#DB6719"/>
</linearGradient>
<linearGradient id="paint42_linear_1_307" x1="4120.7" y1="261.232" x2="4624.63" y2="261.232" gradientUnits="userSpaceOnUse">
<stop stop-color="#FDFEFF"/>
<stop offset="0.16" stop-color="#F2F6FE"/>
<stop offset="0.82" stop-color="#F2F6FE"/>
<stop offset="0.89" stop-color="#EAF0FB"/>
<stop offset="0.99" stop-color="#D4DFF1"/>
<stop offset="1" stop-color="#D1DDF0"/>
</linearGradient>
<linearGradient id="paint43_linear_1_307" x1="3345.49" y1="261.232" x2="3849.42" y2="261.232" gradientUnits="userSpaceOnUse">
<stop stop-color="#FDFEFF"/>
<stop offset="0.16" stop-color="#F2F6FE"/>
<stop offset="0.82" stop-color="#F2F6FE"/>
<stop offset="0.89" stop-color="#EAF0FB"/>
<stop offset="0.99" stop-color="#D4DFF1"/>
<stop offset="1" stop-color="#D1DDF0"/>
</linearGradient>
<linearGradient id="paint44_linear_1_307" x1="1905.97" y1="149.082" x2="2058" y2="149.082" gradientUnits="userSpaceOnUse">
<stop stop-color="#3B6ECC"/>
<stop offset="0.09" stop-color="#3460B8"/>
<stop offset="0.16" stop-color="#3058AD"/>
<stop offset="0.82" stop-color="#3058AD"/>
<stop offset="0.89" stop-color="#2852A5"/>
<stop offset="1" stop-color="#133F8E"/>
</linearGradient>
<linearGradient id="paint45_linear_1_307" x1="2091.29" y1="133.836" x2="2210.86" y2="133.836" gradientUnits="userSpaceOnUse">
<stop stop-color="#3B6ECC"/>
<stop offset="0.09" stop-color="#3460B8"/>
<stop offset="0.16" stop-color="#3058AD"/>
<stop offset="0.82" stop-color="#3058AD"/>
<stop offset="0.89" stop-color="#2852A5"/>
<stop offset="1" stop-color="#133F8E"/>
</linearGradient>
<linearGradient id="paint46_linear_1_307" x1="6.66296" y1="4741.59" x2="3922.88" y2="4741.59" gradientUnits="userSpaceOnUse">
<stop stop-color="#FCAB72"/>
<stop offset="0.03" stop-color="#F8A367"/>
<stop offset="0.11" stop-color="#EE8C48"/>
<stop offset="0.16" stop-color="#EA833D"/>
<stop offset="0.82" stop-color="#EA833D"/>
<stop offset="0.88" stop-color="#E77D35"/>
<stop offset="0.98" stop-color="#DE6C1F"/>
<stop offset="1" stop-color="#DB6719"/>
</linearGradient>
<linearGradient id="paint47_linear_1_307" x1="96.9099" y1="1062.53" x2="216.625" y2="1062.53" gradientUnits="userSpaceOnUse">
<stop stop-color="#FDFEFF"/>
<stop offset="0.16" stop-color="#F2F6FE"/>
<stop offset="0.82" stop-color="#F2F6FE"/>
<stop offset="0.89" stop-color="#EAF0FB"/>
<stop offset="0.99" stop-color="#D4DFF1"/>
<stop offset="1" stop-color="#D1DDF0"/>
</linearGradient>
<linearGradient id="paint48_linear_1_307" x1="292.671" y1="1062.53" x2="412.386" y2="1062.53" gradientUnits="userSpaceOnUse">
<stop stop-color="#FDFEFF"/>
<stop offset="0.16" stop-color="#F2F6FE"/>
<stop offset="0.82" stop-color="#F2F6FE"/>
<stop offset="0.89" stop-color="#EAF0FB"/>
<stop offset="0.99" stop-color="#D4DFF1"/>
<stop offset="1" stop-color="#D1DDF0"/>
</linearGradient>
<linearGradient id="paint49_linear_1_307" x1="488.433" y1="1062.53" x2="608.148" y2="1062.53" gradientUnits="userSpaceOnUse">
<stop stop-color="#FDFEFF"/>
<stop offset="0.16" stop-color="#F2F6FE"/>
<stop offset="0.82" stop-color="#F2F6FE"/>
<stop offset="0.89" stop-color="#EAF0FB"/>
<stop offset="0.99" stop-color="#D4DFF1"/>
<stop offset="1" stop-color="#D1DDF0"/>
</linearGradient>
<linearGradient id="paint50_linear_1_307" x1="14029.7" y1="11961.4" x2="22637.5" y2="11961.4" gradientUnits="userSpaceOnUse">
<stop stop-color="#3B6ECC"/>
<stop offset="0.09" stop-color="#3460B8"/>
<stop offset="0.16" stop-color="#3058AD"/>
<stop offset="0.82" stop-color="#3058AD"/>
<stop offset="0.89" stop-color="#2852A5"/>
<stop offset="1" stop-color="#133F8E"/>
</linearGradient>
<linearGradient id="paint51_linear_1_307" x1="12024.4" y1="9685.31" x2="17661.7" y2="9685.31" gradientUnits="userSpaceOnUse">
<stop stop-color="#FDFEFF"/>
<stop offset="0.16" stop-color="#F2F6FE"/>
<stop offset="0.82" stop-color="#F2F6FE"/>
<stop offset="0.89" stop-color="#EAF0FB"/>
<stop offset="0.99" stop-color="#D4DFF1"/>
<stop offset="1" stop-color="#D1DDF0"/>
</linearGradient>
<linearGradient id="paint52_linear_1_307" x1="2567.7" y1="5823.76" x2="2756.09" y2="5823.76" gradientUnits="userSpaceOnUse">
<stop stop-color="#3B6ECC"/>
<stop offset="0.09" stop-color="#3460B8"/>
<stop offset="0.16" stop-color="#3058AD"/>
<stop offset="0.82" stop-color="#3058AD"/>
<stop offset="0.89" stop-color="#2852A5"/>
<stop offset="1" stop-color="#133F8E"/>
</linearGradient>
<linearGradient id="paint53_linear_1_307" x1="1806.15" y1="1211.9" x2="1890.81" y2="1211.9" gradientUnits="userSpaceOnUse">
<stop stop-color="#3B6ECC"/>
<stop offset="0.09" stop-color="#3460B8"/>
<stop offset="0.16" stop-color="#3058AD"/>
<stop offset="0.82" stop-color="#3058AD"/>
<stop offset="0.89" stop-color="#2852A5"/>
<stop offset="1" stop-color="#133F8E"/>
</linearGradient>
<linearGradient id="paint54_linear_1_307" x1="2108.13" y1="258.083" x2="14198.5" y2="258.083" gradientUnits="userSpaceOnUse">
<stop stop-color="#FDFEFF"/>
<stop offset="0.16" stop-color="#F2F6FE"/>
<stop offset="0.82" stop-color="#F2F6FE"/>
<stop offset="0.89" stop-color="#EAF0FB"/>
<stop offset="0.99" stop-color="#D4DFF1"/>
<stop offset="1" stop-color="#D1DDF0"/>
</linearGradient>
<linearGradient id="paint55_linear_1_307" x1="351.988" y1="258.083" x2="674.365" y2="258.083" gradientUnits="userSpaceOnUse">
<stop stop-color="#3B6ECC"/>
<stop offset="0.09" stop-color="#3460B8"/>
<stop offset="0.16" stop-color="#3058AD"/>
<stop offset="0.82" stop-color="#3058AD"/>
<stop offset="0.89" stop-color="#2852A5"/>
<stop offset="1" stop-color="#133F8E"/>
</linearGradient>
<linearGradient id="paint56_linear_1_307" x1="216.323" y1="106.631" x2="284.514" y2="106.631" gradientUnits="userSpaceOnUse">
<stop stop-color="#FDFEFF"/>
<stop offset="0.16" stop-color="#F2F6FE"/>
<stop offset="0.82" stop-color="#F2F6FE"/>
<stop offset="0.89" stop-color="#EAF0FB"/>
<stop offset="0.99" stop-color="#D4DFF1"/>
<stop offset="1" stop-color="#D1DDF0"/>
</linearGradient>
<linearGradient id="paint57_linear_1_307" x1="115.726" y1="25.7406" x2="133.551" y2="25.7406" gradientUnits="userSpaceOnUse">
<stop stop-color="#FDFEFF"/>
<stop offset="0.16" stop-color="#F2F6FE"/>
<stop offset="0.82" stop-color="#F2F6FE"/>
<stop offset="0.89" stop-color="#EAF0FB"/>
<stop offset="0.99" stop-color="#D4DFF1"/>
<stop offset="1" stop-color="#D1DDF0"/>
</linearGradient>
</defs>
</svg>
