<svg width="34" height="51" viewBox="0 0 34 51" fill="none" xmlns="http://www.w3.org/2000/svg">
<path d="M27.725 23.6014C27.725 22.0059 26.3814 20.6623 24.7859 20.6623C23.1905 20.6623 21.8469 22.0059 21.8469 23.6014V23.1815V20.2425C21.8469 18.647 20.5033 17.3034 18.9079 17.3034C17.3124 17.3034 15.9688 18.647 15.9688 20.2425V20.6623V10.2498C15.9688 8.57035 14.6253 7.22678 13.0298 7.22678C11.4344 7.22678 10.0908 8.57035 10.0908 10.2498V29.8992L8.8312 27.7999C7.31974 25.1127 3.87685 23.9371 1.52567 24.8609C1.1898 24.9448 0.937823 25.1127 0.685945 25.3647C-0.153777 25.8686 0.0142057 26.6243 0.0142057 26.7923C0.0142057 26.9603 4.21282 31.4108 6.564 35.8612C6.564 35.8612 8.66331 39.2201 10.9305 41.6553V44.1745C10.9305 47.9532 14.0374 50.0525 17.6483 50.0525H25.1218C27.9768 50.0525 30.58 48.5411 31.2517 45.602C31.4197 44.9303 31.6716 43.9226 32.1755 43.4187C32.8472 42.663 33.603 40.7316 33.603 38.1285V26.9603C33.603 25.3648 32.2594 24.0212 30.664 24.0212C29.0685 24.0212 27.725 25.3648 27.725 26.9603V26.5404V23.6014Z" fill="#FDC794"/>
<path d="M13.8703 44.8464C13.7023 44.8464 13.4505 44.7624 13.3665 44.6784C12.6948 44.0906 12.107 43.4189 11.6031 42.7471C11.4351 42.5792 11.3513 42.4113 11.1833 42.2433C10.8474 41.9075 10.9314 41.3196 11.2673 41.0678C11.6031 40.7319 12.1909 40.8159 12.4428 41.1518C12.6108 41.3197 12.7787 41.5716 12.8627 41.7396C13.3665 42.3274 13.7863 42.9151 14.3741 43.419C14.7099 43.7548 14.7939 44.2586 14.458 44.5945C14.2902 44.6784 14.1222 44.8464 13.8703 44.8464Z" fill="#F9A671"/>
<path d="M10.9311 32.4186C10.5953 32.4186 10.3433 32.2506 10.1754 31.9987L9.33575 30.3193C9.08388 29.8995 9.25176 29.3957 9.67161 29.2278C10.0915 28.9759 10.5953 29.1438 10.7632 29.5636L11.6029 31.243C11.8547 31.6629 11.6868 32.1667 11.267 32.3346C11.267 32.4186 11.0991 32.4186 10.9311 32.4186Z" fill="#F9A671"/>
<path d="M15.9688 31.5778C15.465 31.5778 15.1292 31.2419 15.1292 30.7381V19.8221C15.1292 19.3183 15.465 18.9825 15.9688 18.9825C16.4727 18.9825 16.8085 19.3183 16.8085 19.8221V30.7381C16.8085 31.2419 16.4727 31.5778 15.9688 31.5778Z" fill="#F9A671"/>
<path d="M21.847 30.738C21.3432 30.738 21.0073 30.4022 21.0073 29.8984V23.1808C21.0073 22.677 21.3432 22.3412 21.847 22.3412C22.3508 22.3412 22.6867 22.677 22.6867 23.1808V29.8984C22.6867 30.4022 22.3507 30.738 21.847 30.738Z" fill="#F9A671"/>
<path d="M27.7253 30.8231C27.2215 30.8231 26.8856 30.4872 26.8856 29.9834V26.5406C26.8856 26.0368 27.2215 25.701 27.7253 25.701C28.2291 25.701 28.565 26.0368 28.565 26.5406V29.9834C28.565 30.4871 28.2291 30.8231 27.7253 30.8231Z" fill="#F9A671"/>
<path d="M28.5645 45.854C28.2287 45.854 27.8928 45.6021 27.7248 45.2662C27.6408 44.8463 27.8928 44.3425 28.3127 44.2585C29.908 43.8387 30.076 43.5868 30.5799 42.915C30.8317 42.5791 31.4195 42.4952 31.7554 42.747C32.0913 42.9989 32.1752 43.5027 31.9234 43.9226C31.1677 45.0141 30.5799 45.434 28.7326 45.9378C28.7325 45.854 28.6485 45.854 28.5645 45.854Z" fill="#F9A671"/>
<path d="M13.4491 4.70786C12.9452 4.70786 12.6094 4.372 12.6094 3.86817V1.3491C12.6094 0.845271 12.9452 0.509415 13.4491 0.509415C13.9529 0.509415 14.2888 0.845271 14.2888 1.3491V3.86817C14.2888 4.372 13.9529 4.70786 13.4491 4.70786Z" fill="#71C386"/>
<path d="M6.81542 10.5856H4.29635C3.79252 10.5856 3.45667 10.2498 3.45667 9.74595C3.45667 9.24212 3.79252 8.90627 4.29635 8.90627H6.81542C7.31925 8.90627 7.65511 9.24212 7.65511 9.74595C7.65511 10.2497 7.23526 10.5856 6.81542 10.5856Z" fill="#71C386"/>
<path d="M21.8469 10.586H19.3278C18.824 10.586 18.4882 10.2501 18.4882 9.74631C18.4882 9.24247 18.824 8.90662 19.3278 8.90662H21.8469C22.3507 8.90662 22.6866 9.24247 22.6866 9.74631C22.6866 10.25 22.2668 10.586 21.8469 10.586Z" fill="#71C386"/>
<path d="M17.6484 6.38738C17.3966 6.38738 17.2286 6.3034 17.0606 6.13552C16.7248 5.79966 16.7248 5.29583 17.0606 4.95997L18.74 3.28059C19.0758 2.94474 19.5797 2.94474 19.9155 3.28059C20.2514 3.61645 20.2514 4.12028 19.9155 4.45614L18.2362 6.13552C18.0683 6.3034 17.9003 6.38738 17.6484 6.38738Z" fill="#71C386"/>
<path d="M8.49529 6.38728C8.24342 6.38728 8.07544 6.30329 7.90747 6.13541L6.22809 4.45603C5.89223 4.12018 5.89223 3.61634 6.22809 3.28049C6.56394 2.94463 7.06778 2.94463 7.40363 3.28049L9.08301 4.95986C9.41887 5.29572 9.41887 5.79955 9.08301 6.13541C8.91513 6.30329 8.66326 6.38728 8.49529 6.38728Z" fill="#71C386"/>
</svg>
