<svg width="47" height="47" viewBox="0 0 47 47" fill="none" xmlns="http://www.w3.org/2000/svg">
<g clip-path="url(#clip0_1_110)">
<path d="M9.50684 36.6611C9.08037 36.6611 8.66348 36.7876 8.30889 37.0245C7.9543 37.2615 7.67792 37.5982 7.51472 37.9922C7.35152 38.3862 7.30882 38.8198 7.39202 39.238C7.47522 39.6563 7.68058 40.0405 7.98214 40.3421C8.2837 40.6436 8.6679 40.849 9.08617 40.9322C9.50445 41.0154 9.938 40.9727 10.332 40.8095C10.726 40.6463 11.0628 40.3699 11.2997 40.0153C11.5366 39.6607 11.6631 39.2438 11.6631 38.8174C11.6624 38.2457 11.4351 37.6976 11.0308 37.2934C10.6266 36.8892 10.0785 36.6618 9.50684 36.6611ZM9.50684 39.5361C9.36468 39.5361 9.22572 39.494 9.10752 39.415C8.98932 39.336 8.8972 39.2238 8.8428 39.0924C8.7884 38.9611 8.77417 38.8166 8.8019 38.6772C8.82963 38.5377 8.89809 38.4097 8.99861 38.3091C9.09912 38.2086 9.22719 38.1402 9.36662 38.1124C9.50604 38.0847 9.65056 38.0989 9.78189 38.1533C9.91323 38.2077 10.0255 38.2999 10.1045 38.4181C10.1834 38.5363 10.2256 38.6752 10.2256 38.8174C10.2254 39.0079 10.1496 39.1906 10.0148 39.3254C9.88009 39.4601 9.6974 39.5359 9.50684 39.5361Z" fill="url(#paint0_linear_1_110)"/>
<path d="M38.9756 36.6611C38.5491 36.6611 38.1322 36.7876 37.7776 37.0245C37.423 37.2615 37.1467 37.5982 36.9835 37.9922C36.8203 38.3862 36.7776 38.8198 36.8608 39.238C36.944 39.6563 37.1493 40.0405 37.4509 40.3421C37.7524 40.6436 38.1367 40.849 38.5549 40.9322C38.9732 41.0154 39.4067 40.9727 39.8007 40.8095C40.1947 40.6463 40.5315 40.3699 40.7684 40.0153C41.0054 39.6607 41.1318 39.2438 41.1318 38.8174C41.1312 38.2457 40.9038 37.6976 40.4996 37.2934C40.0953 36.8892 39.5473 36.6618 38.9756 36.6611ZM38.9756 39.5361C38.8334 39.5361 38.6945 39.494 38.5763 39.415C38.4581 39.336 38.3659 39.2238 38.3115 39.0924C38.2571 38.9611 38.2429 38.8166 38.2706 38.6772C38.2984 38.5377 38.3668 38.4097 38.4674 38.3091C38.5679 38.2086 38.6959 38.1402 38.8354 38.1124C38.9748 38.0847 39.1193 38.0989 39.2506 38.1533C39.382 38.2077 39.4942 38.2999 39.5732 38.4181C39.6522 38.5363 39.6943 38.6752 39.6943 38.8174C39.6941 39.0079 39.6183 39.1906 39.4836 39.3254C39.3488 39.4601 39.1661 39.5359 38.9756 39.5361Z" fill="url(#paint1_linear_1_110)"/>
<path d="M11.6631 31.6299H13.8193C14.01 31.6299 14.1928 31.5542 14.3276 31.4194C14.4624 31.2846 14.5381 31.1018 14.5381 30.9111C14.5381 30.7205 14.4624 30.5377 14.3276 30.4029C14.1928 30.2681 14.01 30.1924 13.8193 30.1924H11.6631C11.4725 30.1924 11.2896 30.2681 11.1549 30.4029C11.0201 30.5377 10.9443 30.7205 10.9443 30.9111C10.9443 31.1018 11.0201 31.2846 11.1549 31.4194C11.2896 31.5542 11.4725 31.6299 11.6631 31.6299Z" fill="url(#paint2_linear_1_110)"/>
<path d="M43.6475 9.34863H18.4912C17.8243 9.34937 17.1848 9.61465 16.7132 10.0863C16.2416 10.5579 15.9763 11.1973 15.9756 11.8643V19.4111H8.06934C7.95102 19.4113 7.83457 19.4406 7.73023 19.4964C7.62589 19.5521 7.53686 19.6327 7.47098 19.731L1.72098 28.356C1.64266 28.4743 1.6008 28.613 1.60059 28.7549V37.0205C1.60132 37.6875 1.8666 38.3269 2.33821 38.7985C2.80982 39.2701 3.44925 39.5354 4.11621 39.5362H5.25543C5.42511 40.541 5.94521 41.4532 6.72346 42.111C7.50171 42.7689 8.4878 43.1298 9.50684 43.1298C10.5259 43.1298 11.512 42.7689 12.2902 42.111C13.0685 41.4532 13.5886 40.541 13.7582 39.5362H34.7242C34.8939 40.541 35.414 41.4532 36.1922 42.111C36.9705 42.7689 37.9566 43.1298 38.9756 43.1298C39.9946 43.1298 40.9807 42.7689 41.759 42.111C42.5372 41.4532 43.0573 40.541 43.227 39.5362H43.6475C44.3144 39.5354 44.9538 39.2701 45.4255 38.7985C45.8971 38.3269 46.1623 37.6875 46.1631 37.0205V11.8643C46.1623 11.1973 45.8971 10.5579 45.4255 10.0863C44.9538 9.61465 44.3144 9.34937 43.6475 9.34863ZM7.01637 23.0049H13.1006V28.0362H3.6625L7.01637 23.0049ZM3.03809 32.3487H4.47559C4.66621 32.3487 4.84903 32.4244 4.98382 32.5592C5.11861 32.694 5.19434 32.8768 5.19434 33.0674C5.19434 33.258 5.11861 33.4408 4.98382 33.5756C4.84903 33.7104 4.66621 33.7862 4.47559 33.7862H3.03809V32.3487ZM9.50684 41.6924C8.93821 41.6924 8.38236 41.5238 7.90957 41.2079C7.43678 40.892 7.06828 40.443 6.85068 39.9176C6.63308 39.3923 6.57615 38.8142 6.68708 38.2565C6.79801 37.6988 7.07183 37.1866 7.4739 36.7845C7.87598 36.3824 8.38826 36.1086 8.94595 35.9977C9.50365 35.8867 10.0817 35.9437 10.6071 36.1613C11.1324 36.3789 11.5814 36.7474 11.8973 37.2201C12.2132 37.6929 12.3818 38.2488 12.3818 38.8174C12.381 39.5796 12.0778 40.3104 11.5388 40.8494C10.9998 41.3884 10.2691 41.6916 9.50684 41.6924ZM15.9756 38.0987H13.7582C13.5886 37.0939 13.0685 36.1816 12.2902 35.5238C11.512 34.8659 10.5259 34.505 9.50684 34.505C8.4878 34.505 7.50171 34.8659 6.72346 35.5238C5.94521 36.1816 5.42511 37.0939 5.25543 38.0987H4.11621C3.83035 38.0984 3.55626 37.9848 3.35412 37.7826C3.15199 37.5805 3.03832 37.3064 3.03809 37.0205V35.2237H4.47559C5.04746 35.2237 5.59591 34.9965 6.00028 34.5921C6.40466 34.1877 6.63184 33.6393 6.63184 33.0674C6.63184 32.4955 6.40466 31.9471 6.00028 31.5427C5.59591 31.1383 5.04746 30.9112 4.47559 30.9112H3.03809V29.4737H13.8193C14.01 29.4737 14.1928 29.3979 14.3276 29.2631C14.4624 29.1283 14.5381 28.9455 14.5381 28.7549V22.2861C14.5381 22.0955 14.4624 21.9127 14.3276 21.7779C14.1928 21.6431 14.01 21.5674 13.8193 21.5674H7.975L8.45387 20.8486H15.9756V38.0987ZM38.9756 41.6924C38.407 41.6924 37.8511 41.5238 37.3783 41.2079C36.9055 40.892 36.537 40.443 36.3194 39.9176C36.1018 39.3923 36.0449 38.8142 36.1558 38.2565C36.2668 37.6988 36.5406 37.1866 36.9427 36.7845C37.3447 36.3824 37.857 36.1086 38.4147 35.9977C38.9724 35.8867 39.5505 35.9437 40.0758 36.1613C40.6011 36.3789 41.0502 36.7474 41.3661 37.2201C41.682 37.6929 41.8506 38.2488 41.8506 38.8174C41.8497 39.5796 41.5466 40.3104 41.0076 40.8494C40.4686 41.3884 39.7378 41.6916 38.9756 41.6924ZM44.7256 37.0205C44.7253 37.3064 44.6117 37.5805 44.4095 37.7826C44.2074 37.9848 43.9333 38.0984 43.6475 38.0987H43.227C43.0573 37.0939 42.5372 36.1816 41.759 35.5238C40.9807 34.8659 39.9946 34.505 38.9756 34.505C37.9566 34.505 36.9705 34.8659 36.1922 35.5238C35.414 36.1816 34.8939 37.0939 34.7242 38.0987H17.4131V32.3487H44.7256V37.0205ZM44.7256 30.9112H17.4131V11.8643C17.4133 11.5784 17.527 11.3043 17.7291 11.1022C17.9313 10.9 18.2053 10.7864 18.4912 10.7861H43.6475C43.9333 10.7864 44.2074 10.9 44.4095 11.1022C44.6117 11.3043 44.7253 11.5784 44.7256 11.8643V30.9112Z" fill="url(#paint3_linear_1_110)"/>
<path d="M41.8506 22.286H32.5068V21.5672H36.8193C37.01 21.5672 37.1928 21.4915 37.3276 21.3567C37.4624 21.2219 37.5381 21.0391 37.5381 20.8485C37.5381 20.6579 37.4624 20.475 37.3276 20.3403C37.1928 20.2055 37.01 20.1297 36.8193 20.1297H32.5068V18.6922C32.5069 18.5704 32.4759 18.4505 32.4168 18.3439C32.3577 18.2374 32.2724 18.1476 32.169 18.0831L26.419 14.4894C26.3049 14.4176 26.1729 14.3795 26.0381 14.3795C25.9033 14.3795 25.7712 14.4176 25.6571 14.4894L19.9071 18.0831C19.8037 18.1476 19.7185 18.2374 19.6594 18.3439C19.6003 18.4505 19.5693 18.5704 19.5693 18.6922V26.5985C19.5693 26.7891 19.6451 26.9719 19.7799 27.1067C19.9146 27.2415 20.0975 27.3172 20.2881 27.3172H31.7881C31.9787 27.3172 32.1615 27.2415 32.2963 27.1067C32.4311 26.9719 32.5068 26.7891 32.5068 26.5985V25.8797H35.3818C35.5725 25.8797 35.7553 25.804 35.8901 25.6692C36.0249 25.5344 36.1006 25.3516 36.1006 25.161C36.1006 24.9704 36.0249 24.7875 35.8901 24.6527C35.7553 24.518 35.5725 24.4422 35.3818 24.4422H32.5068V23.7235H41.8506C42.0412 23.7235 42.224 23.6478 42.3588 23.513C42.4936 23.3782 42.5693 23.1954 42.5693 23.0047C42.5693 22.8141 42.4936 22.6313 42.3588 22.4965C42.224 22.3617 42.0412 22.286 41.8506 22.286ZM26.7568 25.8797H25.3193V23.0047H26.7568V25.8797ZM31.0693 25.8797H28.1943V22.286C28.1943 22.0954 28.1186 21.9125 27.9838 21.7778C27.849 21.643 27.6662 21.5672 27.4756 21.5672H24.6006C24.41 21.5672 24.2271 21.643 24.0924 21.7778C23.9576 21.9125 23.8818 22.0954 23.8818 22.286V25.8797H21.0068V19.0902L26.0381 15.9457L31.0693 19.0902V25.8797Z" fill="url(#paint4_linear_1_110)"/>
<path d="M38.9756 21.5674H39.6943C39.885 21.5674 40.0678 21.4917 40.2026 21.3569C40.3374 21.2221 40.4131 21.0393 40.4131 20.8486C40.4131 20.658 40.3374 20.4752 40.2026 20.3404C40.0678 20.2056 39.885 20.1299 39.6943 20.1299H38.9756C38.785 20.1299 38.6021 20.2056 38.4674 20.3404C38.3326 20.4752 38.2568 20.658 38.2568 20.8486C38.2568 21.0393 38.3326 21.2221 38.4674 21.3569C38.6021 21.4917 38.785 21.5674 38.9756 21.5674Z" fill="url(#paint5_linear_1_110)"/>
</g>
<defs>
<linearGradient id="paint0_linear_1_110" x1="7.00502" y1="37.107" x2="11.6631" y2="42.0211" gradientUnits="userSpaceOnUse">
<stop stop-color="#003A92"/>
<stop offset="1" stop-color="#74A0E3"/>
</linearGradient>
<linearGradient id="paint1_linear_1_110" x1="36.4738" y1="37.107" x2="41.1318" y2="42.0211" gradientUnits="userSpaceOnUse">
<stop stop-color="#003A92"/>
<stop offset="1" stop-color="#74A0E3"/>
</linearGradient>
<linearGradient id="paint2_linear_1_110" x1="12.7412" y1="30.1924" x2="12.7412" y2="31.6299" gradientUnits="userSpaceOnUse">
<stop stop-color="#283B77"/>
<stop offset="1" stop-color="#74CBE3"/>
</linearGradient>
<linearGradient id="paint3_linear_1_110" x1="-1.97026" y1="12.8414" x2="32.6615" y2="61.0367" gradientUnits="userSpaceOnUse">
<stop stop-color="#003A92"/>
<stop offset="1" stop-color="#74A0E3"/>
</linearGradient>
<linearGradient id="paint4_linear_1_110" x1="17.7263" y1="15.7172" x2="29.3464" y2="37.5102" gradientUnits="userSpaceOnUse">
<stop stop-color="#003A92"/>
<stop offset="1" stop-color="#74A0E3"/>
</linearGradient>
<linearGradient id="paint5_linear_1_110" x1="39.335" y1="20.1299" x2="39.335" y2="21.5674" gradientUnits="userSpaceOnUse">
<stop stop-color="#283B77"/>
<stop offset="1" stop-color="#74CBE3"/>
</linearGradient>
<clipPath id="clip0_1_110">
<rect width="46" height="46" fill="white" transform="translate(0.881836 0.723633)"/>
</clipPath>
</defs>
</svg>
