<svg width="44" height="43" viewBox="0 0 44 43" fill="none" xmlns="http://www.w3.org/2000/svg">
<path d="M12.0644 10.6358C11.6725 10.6358 11.3547 10.318 11.3547 9.92613C11.3547 9.53421 11.6725 9.21646 12.0644 9.21646C12.847 9.21646 13.4838 8.5797 13.4838 7.79711V6.37776C13.4838 5.59517 12.847 4.95841 12.0644 4.95841C11.6725 4.95841 11.3547 4.64065 11.3547 4.24874C11.3547 3.85682 11.6725 3.53906 12.0644 3.53906C13.6297 3.53906 14.9031 4.81248 14.9031 6.37776V7.79711C14.9031 9.36238 13.6297 10.6358 12.0644 10.6358Z" fill="#463C4B"/>
<path d="M20.1656 12.3491L14.61 6.79347C14.3438 6.52725 13.9828 6.37769 13.6063 6.37769H11.9435C11.5671 6.37769 11.206 6.52725 10.9398 6.79347L5.3842 12.3491C5.11807 12.6153 4.96851 12.9762 4.96851 13.3526V27.668C4.96851 28.4519 5.60402 29.0874 6.38785 29.0874H19.162C19.9458 29.0874 20.5813 28.4519 20.5813 27.668V13.3527C20.5813 12.9763 20.4317 12.6153 20.1656 12.3491Z" fill="#A5C3DC"/>
<path d="M4.96838 13.3536V27.6689C4.96838 28.4528 5.60381 29.0882 6.38773 29.0882H17.7425C18.5264 29.0882 19.1619 28.4528 19.1619 27.6689V13.3536C19.1619 12.9772 19.0123 12.6162 18.7462 12.35L13.1906 6.79435C12.9244 6.52814 12.5634 6.37866 12.1869 6.37866H11.9434C11.567 6.37866 11.206 6.52823 10.9398 6.79435L5.38416 12.35C5.11795 12.6162 4.96838 12.9772 4.96838 13.3536Z" fill="#E6E6EB"/>
<path d="M12.0651 12.0552C13.2409 12.0552 14.1941 11.102 14.1941 9.92614C14.1941 8.75032 13.2409 7.79712 12.0651 7.79712C10.8892 7.79712 9.93604 8.75032 9.93604 9.92614C9.93604 11.102 10.8892 12.0552 12.0651 12.0552Z" fill="#A5C3DC"/>
<path d="M14.9037 19.1519C15.2956 19.1519 15.6133 18.8341 15.6133 18.4422V18.3058C15.6133 16.8157 14.4011 15.6035 12.9111 15.6035H12.7746V14.1842C12.7746 13.7922 12.4569 13.4745 12.065 13.4745C11.6731 13.4745 11.3553 13.7922 11.3553 14.1842V15.6035H11.2189C9.72881 15.6035 8.5166 16.8157 8.5166 18.3058C8.5166 19.5481 9.35828 20.6261 10.5635 20.9274L13.2222 21.592C13.7944 21.7351 14.194 22.2469 14.194 22.8367C14.194 23.5441 13.6185 24.1196 12.9111 24.1196H11.2189C10.5114 24.1196 9.93595 23.5441 9.93595 22.8367V22.7003C9.93595 22.3083 9.61819 21.9906 9.22628 21.9906C8.83436 21.9906 8.5166 22.3083 8.5166 22.7003V22.8367C8.5166 24.3267 9.72881 25.539 11.2189 25.539H11.3553V26.9583C11.3553 27.3502 11.6731 27.668 12.065 27.668C12.4569 27.668 12.7746 27.3502 12.7746 26.9583V25.539H12.9111C14.4011 25.539 15.6133 24.3267 15.6133 22.8367C15.6133 21.5944 14.7717 20.5164 13.5665 20.2151L10.9078 19.5505C10.3356 19.4074 9.93595 18.8955 9.93595 18.3058C9.93595 17.5983 10.5114 17.0229 11.2189 17.0229H12.9111C13.6185 17.0229 14.194 17.5983 14.194 18.3058V18.4422C14.194 18.8341 14.5118 19.1519 14.9037 19.1519Z" fill="#FF4646"/>
<path d="M32.6453 36.1841H24.1292C23.3453 36.1841 22.7098 36.8195 22.7098 37.6034V42.5712H34.0646V37.6034C34.0646 36.8195 33.4292 36.1841 32.6453 36.1841Z" fill="#463C4B"/>
<path d="M34.0648 37.6034H29.8068C29.0229 37.6034 28.3875 38.2388 28.3875 39.0227V42.5711H34.0648V37.6034Z" fill="#32283C"/>
<path d="M33.3549 26.9584H28.3872C26.0355 26.9584 24.1292 28.8647 24.1292 31.2164V36.1841H28.3872V32.6358C28.3872 31.8518 29.0226 31.2164 29.8065 31.2164H33.3549C34.5308 31.2164 35.4839 30.2632 35.4839 29.0874C35.4839 27.9116 34.5308 26.9584 33.3549 26.9584Z" fill="#FAB991"/>
<path d="M43.5845 25.9548C43.0303 25.4005 42.1315 25.4005 41.5773 25.9548L36.3157 31.2164H29.8068C29.023 31.2164 28.3875 31.8518 28.3875 32.6357V36.1841H32.6455V35.4744C32.6455 34.6905 33.281 34.0551 34.0648 34.0551H36.6097C37.1783 34.0551 37.713 33.8336 38.115 33.4315L43.5846 27.962C44.1389 27.4076 44.1389 26.509 43.5845 25.9548Z" fill="#F0915A"/>
<path d="M33.355 30.2702H32.8819C32.49 30.2702 32.1722 29.9524 32.1722 29.5605V28.6142C32.1722 28.2223 32.49 27.9045 32.8819 27.9045H33.355C34.0083 27.9045 34.5378 28.4341 34.5378 29.0873C34.5378 29.7406 34.0083 30.2702 33.355 30.2702Z" fill="#F0915A"/>
<path d="M19.8714 39.7324H11.3553C10.5713 39.7324 9.93591 40.3678 9.93591 41.1518V42.5711H21.2907V41.1518C21.2907 40.3678 20.6553 39.7324 19.8714 39.7324Z" fill="#463C4B"/>
<path d="M21.2904 41.1519H17.0324C16.2485 41.1519 15.613 41.7873 15.613 42.5712H21.2904V41.1519Z" fill="#32283C"/>
<path d="M10.6456 30.5067H15.6133C17.965 30.5067 19.8714 32.4131 19.8714 34.7648H10.6456C9.46978 34.7648 8.5166 33.8116 8.5166 32.6357C8.5166 31.4599 9.46978 30.5067 10.6456 30.5067Z" fill="#FAB991"/>
<path d="M10.6455 33.8185H11.1186C11.5105 33.8185 11.8283 33.5007 11.8283 33.1088V32.1626C11.8283 31.7706 11.5105 31.4529 11.1186 31.4529H10.6455C9.99227 31.4529 9.46277 31.9825 9.46277 32.6356C9.46277 33.289 9.99227 33.8185 10.6455 33.8185Z" fill="#F0915A"/>
<path d="M7.68509 34.7647L2.42347 29.5031C1.86922 28.9488 0.970502 28.9488 0.416247 29.5031C-0.138098 30.0573 -0.138098 30.9561 0.416247 31.5103L5.8858 36.9799C6.28783 37.382 6.82257 37.6034 7.39119 37.6034H9.93591C10.7197 37.6034 11.3553 38.2388 11.3553 39.0228V39.7324H19.8713V34.7647H7.68509Z" fill="#F0915A"/>
<path d="M9.93591 37.6034C10.7197 37.6034 11.3553 38.2388 11.3553 39.0227V39.7324H15.6133V39.0227C15.6133 38.2388 14.9779 37.6034 14.194 37.6034H9.93591Z" fill="#FAB991"/>
<path d="M12.0645 10.6358C10.4993 10.6358 9.22583 9.36238 9.22583 7.79711V6.37776C9.22583 4.81248 10.4993 3.53906 12.0645 3.53906C12.4564 3.53906 12.7742 3.85682 12.7742 4.24874C12.7742 4.64065 12.4564 4.95841 12.0645 4.95841C11.2819 4.95841 10.6452 5.59517 10.6452 6.37776V7.79711C10.6452 8.5797 11.2819 9.21646 12.0645 9.21646C12.4564 9.21646 12.7742 9.53421 12.7742 9.92613C12.7742 10.318 12.4564 10.6358 12.0645 10.6358Z" fill="#463C4B"/>
<path d="M30.5164 7.08747C30.1245 7.08747 29.8068 6.76971 29.8068 6.37779C29.8068 5.98587 30.1245 5.66812 30.5164 5.66812C31.299 5.66812 31.9358 5.03136 31.9358 4.24877V2.82942C31.9358 2.04683 31.299 1.41007 30.5164 1.41007C30.1245 1.41007 29.8068 1.09231 29.8068 0.700397C29.8068 0.308479 30.1245 -0.00927734 30.5164 -0.00927734C32.0817 -0.00927734 33.3551 1.26414 33.3551 2.82942V4.24877C33.3551 5.81404 32.0817 7.08747 30.5164 7.08747Z" fill="#463C4B"/>
<path d="M38.6166 8.80072L33.061 3.24513C32.7949 2.97891 32.4338 2.82935 32.0574 2.82935H30.3945C30.0181 2.82935 29.6571 2.97891 29.3908 3.24513L23.8352 8.80072C23.5691 9.06694 23.4196 9.4279 23.4196 9.80429V24.1197C23.4196 24.9036 24.0551 25.539 24.8389 25.539H37.613C38.3969 25.539 39.0324 24.9036 39.0324 24.1197V9.80438C39.0323 9.42799 38.8827 9.06694 38.6166 8.80072Z" fill="#CD3232"/>
<path d="M23.4197 9.80466V24.1199C23.4197 24.9039 24.0551 25.5393 24.839 25.5393H36.1938C36.9777 25.5393 37.6132 24.9039 37.6132 24.1199V9.80466C37.6132 9.42826 37.4636 9.06722 37.1975 8.801L31.6419 3.2454C31.3757 2.97919 31.0147 2.82971 30.6382 2.82971H30.3947C30.0183 2.82971 29.6573 2.97928 29.3911 3.2454L23.8355 8.801C23.5692 9.06722 23.4197 9.42826 23.4197 9.80466Z" fill="#FF4646"/>
<path d="M30.5162 8.50683C31.6921 8.50683 32.6453 7.55363 32.6453 6.3778C32.6453 5.20198 31.6921 4.24878 30.5162 4.24878C29.3404 4.24878 28.3872 5.20198 28.3872 6.3778C28.3872 7.55363 29.3404 8.50683 30.5162 8.50683Z" fill="#CD3232"/>
<path d="M33.3552 15.6035C33.7471 15.6035 34.0649 15.2858 34.0649 14.8939V14.7574C34.0649 13.2674 32.8527 12.0552 31.3626 12.0552H31.2262V10.6358C31.2262 10.2439 30.9084 9.92615 30.5165 9.92615C30.1246 9.92615 29.8068 10.2439 29.8068 10.6358V12.0552H29.6704C28.1804 12.0552 26.9681 13.2674 26.9681 14.7574C26.9681 15.9997 27.8098 17.0777 29.015 17.3791L31.6737 18.0437C32.2459 18.1868 32.6455 18.6986 32.6455 19.2883C32.6455 19.9958 32.0701 20.5713 31.3626 20.5713H29.6704C28.9629 20.5713 28.3875 19.9958 28.3875 19.2883V19.1519C28.3875 18.76 28.0697 18.4422 27.6778 18.4422C27.2859 18.4422 26.9681 18.76 26.9681 19.1519V19.2883C26.9681 20.7784 28.1804 21.9906 29.6704 21.9906H29.8068V23.41C29.8068 23.8019 30.1246 24.1196 30.5165 24.1196C30.9084 24.1196 31.2262 23.8019 31.2262 23.41V21.9906H31.3626C32.8527 21.9906 34.0649 20.7784 34.0649 19.2883C34.0649 18.0461 33.2232 16.9681 32.018 16.6667L29.3593 16.0021C28.7871 15.859 28.3875 15.3472 28.3875 14.7574C28.3875 14.05 28.9629 13.4745 29.6704 13.4745H31.3626C32.0701 13.4745 32.6455 14.05 32.6455 14.7574V14.8939C32.6455 15.2858 32.9633 15.6035 33.3552 15.6035Z" fill="#E6E6EB"/>
<path d="M30.5166 7.08747C28.9513 7.08747 27.6779 5.81404 27.6779 4.24877V2.82942C27.6779 1.26414 28.9513 -0.00927734 30.5166 -0.00927734C30.9085 -0.00927734 31.2262 0.308479 31.2262 0.700397C31.2262 1.09231 30.9085 1.41007 30.5166 1.41007C29.734 1.41007 29.0972 2.04683 29.0972 2.82942V4.24877C29.0972 5.03136 29.734 5.66812 30.5166 5.66812C30.9085 5.66812 31.2262 5.98587 31.2262 6.37779C31.2262 6.76971 30.9085 7.08747 30.5166 7.08747Z" fill="#463C4B"/>
</svg>
