<svg width="44" height="54" viewBox="0 0 44 54" fill="none" xmlns="http://www.w3.org/2000/svg">
<path d="M20.7668 32.002L11.6752 53.9518L9.50293 50.0069L15.522 28.1926L20.7668 32.002Z" fill="#E02E00"/>
<path d="M10.3628 24.097L0.000488281 49.1159L7.7719 46.8639L9.50353 50.007L17.8717 29.8015L10.3628 24.097Z" fill="#FF4719"/>
<path d="M23.2338 32.002L32.3253 53.9518L34.4976 50.0069L28.4785 28.1926L23.2338 32.002Z" fill="#C20035"/>
<path d="M33.6381 24.097L26.1293 29.8015L34.4974 50.007L36.2291 46.8639L44.0005 49.1159L33.6381 24.097Z" fill="#FF0F47"/>
<path d="M22.0007 0.610229L16.1389 17.4473L22.0007 34.2844C31.2995 34.2844 38.8378 26.7463 38.8378 17.4473C38.8378 8.14838 31.2995 0.610229 22.0007 0.610229Z" fill="#E89330"/>
<path d="M5.1637 17.4473C5.1637 26.7462 12.7018 34.2844 22.0008 34.2844V0.610229C12.702 0.610229 5.1637 8.14838 5.1637 17.4473Z" fill="#FFBE35"/>
<path d="M22 4.12722V30.7675C29.3447 30.7675 35.3202 24.7921 35.3202 17.4473C35.3202 10.1025 29.3447 4.12722 22 4.12722Z" fill="#FFDB8A"/>
<path d="M21.9998 4.12722C14.6551 4.12722 8.67957 10.1026 8.67957 17.4474C8.67957 24.7922 14.6551 30.7676 21.9998 30.7676C28.0514 30.7676 32.9752 24.7922 32.9752 17.4474C32.9752 10.1026 28.0514 4.12722 21.9998 4.12722Z" fill="#FFEAB5"/>
<path d="M22.0003 7.64419L24.9753 13.3525L31.3236 14.418L26.814 19.0113L27.7624 25.3779L22.0003 22.5085L16.2383 25.3779L17.1867 19.0113L12.6771 14.418L19.0254 13.3525L22.0003 7.64419Z" fill="#E89330"/>
</svg>
