<svg width="40" height="45" viewBox="0 0 40 45" fill="none" xmlns="http://www.w3.org/2000/svg">
<path d="M22.3338 45.0053H17.5481C17.4958 45.0053 17.4434 44.9999 17.3922 44.9896C17.3409 44.9794 17.2913 44.9643 17.2427 44.9443C17.1941 44.9243 17.1483 44.9 17.1045 44.8709C17.0614 44.8418 17.0209 44.8088 16.9837 44.7722C16.947 44.7349 16.914 44.695 16.8849 44.6513C16.8558 44.6081 16.8309 44.5622 16.811 44.5137C16.791 44.4656 16.7759 44.416 16.7656 44.3647C16.7554 44.3134 16.7505 44.2616 16.7505 44.2093V36.2991C16.4419 36.1469 16.1461 35.9732 15.8633 35.7778C15.58 35.583 15.3124 35.3687 15.0598 35.1351C14.8078 34.902 14.5736 34.6516 14.3572 34.385C14.1408 34.1178 13.9449 33.8367 13.7695 33.5415C13.5936 33.2463 13.4398 32.9403 13.3081 32.623C13.1764 32.3062 13.0685 31.9814 12.9838 31.6484C12.8991 31.316 12.8381 30.9787 12.8019 30.6376C12.7658 30.296 12.7544 29.9539 12.7674 29.6107C12.7803 29.268 12.8181 28.9275 12.8802 28.5897C12.9422 28.2524 13.028 27.921 13.1381 27.5956C13.2477 27.2702 13.3804 26.9545 13.5358 26.648C13.6913 26.342 13.8677 26.0485 14.0652 25.7673C14.2633 25.4867 14.4797 25.2212 14.7161 24.9713C14.9519 24.7215 15.2044 24.4894 15.4737 24.2762C15.743 24.0625 16.0263 23.8688 16.3237 23.6961C16.6205 23.5229 16.9286 23.3723 17.2476 23.2434C17.2778 23.2309 17.3085 23.2207 17.3398 23.2121C17.3717 23.204 17.4035 23.1975 17.4354 23.1926C17.4677 23.1883 17.5001 23.1856 17.5325 23.1851C17.5654 23.1845 17.5978 23.1856 17.6302 23.1888C17.6625 23.1926 17.6944 23.1975 17.7262 23.205C17.7581 23.2121 17.7894 23.2212 17.8201 23.2326C17.8503 23.2434 17.8806 23.2563 17.9092 23.2714C17.9383 23.286 17.9664 23.3022 17.9933 23.3205C18.0203 23.3383 18.0462 23.3583 18.0711 23.3793C18.0953 23.4009 18.1185 23.4236 18.1401 23.4479C18.1623 23.4716 18.1822 23.497 18.2011 23.524C18.22 23.5504 18.2367 23.5779 18.2518 23.6065C18.2675 23.6357 18.281 23.6648 18.2923 23.695C18.3042 23.7258 18.3139 23.7566 18.322 23.7879C18.3296 23.8197 18.3355 23.8515 18.3398 23.8839C18.3436 23.9158 18.3457 23.9481 18.3457 23.9811V28.7602L19.9409 30.3516L21.5362 28.7602V23.9811C21.5362 23.9481 21.5383 23.9158 21.5421 23.8839C21.5459 23.8515 21.5518 23.8197 21.5599 23.7884C21.5675 23.7566 21.5772 23.7258 21.589 23.6956C21.6009 23.6654 21.6144 23.6357 21.6295 23.6071C21.6446 23.5785 21.6619 23.5504 21.6802 23.524C21.6991 23.4975 21.7196 23.4722 21.7412 23.4479C21.7628 23.4236 21.786 23.4009 21.8108 23.3799C21.8351 23.3583 21.861 23.3389 21.888 23.3205C21.915 23.3027 21.943 23.286 21.9722 23.2714C22.0013 23.2568 22.031 23.2439 22.0618 23.2326C22.092 23.2218 22.1233 23.2126 22.1551 23.205C22.187 23.198 22.2188 23.1926 22.2512 23.1894C22.2836 23.1861 22.3159 23.1845 22.3489 23.1851C22.3812 23.1861 22.4136 23.1883 22.446 23.1932C22.4778 23.1975 22.5097 23.204 22.5415 23.2126C22.5728 23.2212 22.6036 23.2315 22.6338 23.2439C22.9527 23.3723 23.2609 23.5234 23.5577 23.6961C23.855 23.8693 24.1383 24.0625 24.4076 24.2762C24.6769 24.4899 24.9295 24.7215 25.1658 24.9713C25.4017 25.2212 25.6186 25.4867 25.8161 25.7673C26.0136 26.0485 26.1901 26.342 26.3455 26.6485C26.5009 26.9545 26.6337 27.2702 26.7438 27.5956C26.8533 27.921 26.9397 28.2524 27.0017 28.5902C27.0638 28.9275 27.1016 29.268 27.1145 29.6107C27.1275 29.9539 27.1161 30.296 27.08 30.6376C27.0433 30.9787 26.9828 31.316 26.8981 31.6484C26.8134 31.9814 26.7049 32.3062 26.5732 32.623C26.4421 32.9403 26.2883 33.2463 26.1124 33.5415C25.9365 33.8367 25.7406 34.1178 25.5247 34.385C25.3083 34.6516 25.0741 34.902 24.8215 35.1356C24.5695 35.3687 24.3019 35.583 24.0185 35.7778C23.7352 35.9732 23.4395 36.1469 23.1314 36.2991V44.2093C23.1314 44.2616 23.1265 44.3134 23.1162 44.3647C23.106 44.416 23.0909 44.4656 23.0709 44.5137C23.0504 44.5622 23.0261 44.6081 22.997 44.6513C22.9678 44.695 22.9349 44.7349 22.8977 44.7722C22.861 44.8088 22.8205 44.8418 22.7768 44.8709C22.7331 44.9 22.6872 44.9243 22.6392 44.9443C22.5906 44.9643 22.541 44.9794 22.4892 44.9896C22.4379 44.9999 22.3861 45.0053 22.3338 45.0053ZM18.3457 43.4133H21.5362V35.7848C21.5362 35.7055 21.5475 35.6283 21.5712 35.5522C21.5944 35.4767 21.6279 35.406 21.6727 35.3401C21.7169 35.2743 21.7698 35.2166 21.8319 35.1669C21.8934 35.1167 21.9609 35.0773 22.0348 35.0477C22.2668 34.9538 22.4913 34.8447 22.7088 34.7212C22.9263 34.597 23.1346 34.4594 23.3332 34.3078C23.5323 34.1556 23.7201 33.9916 23.8966 33.8146C24.073 33.6376 24.2371 33.4492 24.3887 33.2506C24.5398 33.0515 24.6775 32.8432 24.8005 32.6257C24.9241 32.4082 25.032 32.1837 25.1248 31.9517C25.2176 31.7202 25.2948 31.4827 25.3558 31.2404C25.4168 30.9981 25.4616 30.7531 25.4896 30.5049C25.5172 30.2566 25.5285 30.0079 25.5231 29.758C25.5172 29.5081 25.495 29.2599 25.4562 29.0133C25.4168 28.7667 25.3612 28.5233 25.2894 28.2842C25.2176 28.0452 25.1302 27.8115 25.0271 27.5838C24.9235 27.3566 24.8054 27.1369 24.6726 26.9248C24.5398 26.7133 24.3931 26.5115 24.2333 26.3194C24.073 26.1272 23.9009 25.947 23.7163 25.7781C23.5318 25.6092 23.337 25.4532 23.1314 25.3108V29.0899C23.1314 29.1952 23.1109 29.2966 23.0704 29.3943C23.0299 29.4914 22.9727 29.5778 22.8977 29.6522L20.5049 32.0396C20.4676 32.0763 20.4277 32.1098 20.384 32.1384C20.3403 32.1675 20.2944 32.1924 20.2458 32.2123C20.1978 32.2323 20.1476 32.2474 20.0964 32.2577C20.0451 32.2679 19.9933 32.2728 19.9409 32.2728C19.8886 32.2728 19.8368 32.2679 19.785 32.2577C19.7337 32.2474 19.6841 32.2323 19.6355 32.2123C19.5875 32.1924 19.5411 32.1675 19.4979 32.1384C19.4542 32.1098 19.4137 32.0763 19.377 32.0396L16.9842 29.6522C16.9092 29.5778 16.8514 29.4914 16.811 29.3943C16.7705 29.2966 16.7505 29.1952 16.7505 29.0899V25.3108C16.5449 25.4532 16.3501 25.6092 16.1656 25.7781C15.981 25.947 15.8088 26.1272 15.6486 26.3194C15.4883 26.5115 15.342 26.7133 15.2093 26.9254C15.076 27.1369 14.9578 27.3566 14.8547 27.5843C14.7517 27.8115 14.6637 28.0452 14.5919 28.2842C14.5202 28.5238 14.4646 28.7667 14.4257 29.0133C14.3869 29.2599 14.3642 29.5081 14.3588 29.758C14.3534 30.0079 14.3642 30.2566 14.3923 30.5049C14.4203 30.7531 14.4646 30.9987 14.5261 31.241C14.5871 31.4827 14.6637 31.7202 14.7571 31.9522C14.8499 32.1837 14.9578 32.4088 15.0814 32.6262C15.2044 32.8432 15.342 33.0515 15.4931 33.2506C15.6448 33.4498 15.8088 33.6376 15.9853 33.8146C16.1618 33.9916 16.3496 34.1556 16.5487 34.3078C16.7473 34.4594 16.9556 34.597 17.1731 34.7212C17.3906 34.8447 17.6151 34.9538 17.8476 35.0477C17.921 35.0773 17.9885 35.1173 18.0506 35.1669C18.1121 35.2166 18.165 35.2749 18.2092 35.3401C18.254 35.406 18.2875 35.4767 18.3107 35.5522C18.3339 35.6283 18.3457 35.7055 18.3457 35.7848V43.4133Z" fill="url(#paint0_linear_1_215)"/>
<path d="M39.0843 18.7448H0.797698C0.71675 18.7448 0.637422 18.7324 0.559712 18.7086C0.482542 18.6843 0.410229 18.6493 0.343852 18.6029C0.276935 18.557 0.218653 18.5019 0.169005 18.4383C0.118818 18.3746 0.0794234 18.3044 0.0513616 18.2289C0.0227602 18.1533 0.00603101 18.0745 0.00117419 17.9941C-0.00314301 17.9132 0.00441213 17.8333 0.0243791 17.7551C0.0438065 17.6763 0.0751062 17.6029 0.117199 17.5338C0.159831 17.4647 0.211098 17.4032 0.272618 17.3503L19.4156 0.638989C19.4885 0.57531 19.57 0.526742 19.6606 0.492744C19.7507 0.458746 19.8446 0.442017 19.9412 0.442017C20.0378 0.442017 20.1312 0.458746 20.2219 0.492744C20.312 0.526742 20.394 0.57531 20.4663 0.638989L39.6093 17.3503C39.6703 17.4032 39.7221 17.4647 39.7647 17.5338C39.8068 17.6029 39.8381 17.6763 39.8576 17.7551C39.8775 17.8333 39.8851 17.9132 39.8802 17.9936C39.8759 18.0745 39.8592 18.1528 39.8306 18.2289C39.8025 18.3044 39.7631 18.374 39.7135 18.4383C39.6633 18.5019 39.605 18.557 39.5386 18.6029C39.4717 18.6493 39.3999 18.6843 39.3222 18.7081C39.2451 18.7324 39.1657 18.7448 39.0843 18.7448ZM2.92068 17.1534H36.9618L19.9412 2.29517L2.92068 17.1534Z" fill="url(#paint1_linear_1_215)"/>
<path d="M35.0957 40.2304H22.3335C22.2811 40.2304 22.2293 40.2256 22.1781 40.2153C22.1263 40.2051 22.0766 40.19 22.0281 40.17C21.98 40.15 21.9342 40.1252 21.8904 40.0961C21.8467 40.0675 21.8063 40.0345 21.7696 39.9973C21.7323 39.9606 21.6994 39.9201 21.6703 39.877C21.6411 39.8333 21.6168 39.7874 21.5963 39.7394C21.5764 39.6908 21.5613 39.6411 21.551 39.5899C21.5407 39.5386 21.5359 39.4868 21.5359 39.4345C21.5359 39.3826 21.5407 39.3308 21.551 39.2796C21.5613 39.2283 21.5764 39.1781 21.5963 39.1301C21.6168 39.0821 21.6411 39.0362 21.6703 38.9925C21.6994 38.9493 21.7323 38.9088 21.7696 38.8721C21.8063 38.8349 21.8467 38.802 21.8904 38.7728C21.9342 38.7437 21.98 38.7194 22.0281 38.6995C22.0766 38.6795 22.1263 38.6644 22.1781 38.6541C22.2293 38.6439 22.2811 38.639 22.3335 38.639H34.2981V18.7448H5.58329V38.639H17.5479C17.6002 38.639 17.652 38.6439 17.7033 38.6541C17.7546 38.6644 17.8048 38.6795 17.8528 38.6995C17.9013 38.7194 17.9472 38.7437 17.9909 38.7728C18.0341 38.802 18.0746 38.8349 18.1118 38.8721C18.1485 38.9088 18.182 38.9493 18.2111 38.9925C18.2397 39.0362 18.2645 39.0821 18.2845 39.1301C18.3045 39.1781 18.3196 39.2283 18.3298 39.2796C18.3401 39.3308 18.3455 39.3826 18.3455 39.4345C18.3455 39.4868 18.3401 39.5386 18.3298 39.5899C18.3196 39.6411 18.3045 39.6908 18.2845 39.7394C18.2645 39.7874 18.2397 39.8333 18.2111 39.877C18.182 39.9201 18.1485 39.9606 18.1118 39.9973C18.0746 40.0345 18.0341 40.0675 17.9909 40.0961C17.9472 40.1252 17.9013 40.15 17.8528 40.17C17.8048 40.19 17.7546 40.2051 17.7033 40.2153C17.652 40.2256 17.6002 40.2304 17.5479 40.2304H4.78515C4.73281 40.2304 4.681 40.2256 4.62973 40.2153C4.57847 40.2051 4.52828 40.19 4.48025 40.17C4.43168 40.15 4.38581 40.1252 4.3421 40.0961C4.29893 40.0675 4.25845 40.0345 4.22122 39.9973C4.18452 39.9606 4.15106 39.9201 4.12192 39.877C4.09332 39.8333 4.0685 39.7874 4.04853 39.7394C4.02856 39.6908 4.01345 39.6411 4.0032 39.5899C3.99295 39.5386 3.98755 39.4868 3.98755 39.4345V17.9488C3.98755 17.8965 3.99295 17.8447 4.0032 17.7934C4.01345 17.7421 4.02856 17.6925 4.04853 17.6445C4.0685 17.5959 4.09332 17.55 4.12192 17.5069C4.15106 17.4631 4.18452 17.4232 4.22122 17.386C4.25845 17.3493 4.29893 17.3164 4.3421 17.2872C4.38581 17.2581 4.43168 17.2338 4.48025 17.2138C4.52828 17.1939 4.57847 17.1787 4.62973 17.1685C4.681 17.1582 4.73281 17.1534 4.78515 17.1534H35.0957C35.148 17.1534 35.1998 17.1582 35.2511 17.1685C35.3029 17.1787 35.3526 17.1939 35.4011 17.2138C35.4492 17.2338 35.4956 17.2581 35.5387 17.2872C35.5824 17.3164 35.6229 17.3493 35.6596 17.386C35.6969 17.4232 35.7298 17.4631 35.7589 17.5069C35.7881 17.55 35.8129 17.5959 35.8328 17.6445C35.8528 17.6925 35.8679 17.7421 35.8782 17.7934C35.8884 17.8447 35.8933 17.8965 35.8933 17.9488V39.4345C35.8933 39.4868 35.8884 39.5386 35.8782 39.5899C35.8679 39.6411 35.8528 39.6908 35.8328 39.7394C35.8129 39.7874 35.7881 39.8333 35.7589 39.877C35.7298 39.9201 35.6969 39.9606 35.6596 39.9973C35.6229 40.0345 35.5824 40.0675 35.5387 40.0961C35.4956 40.1252 35.4492 40.15 35.4011 40.17C35.3526 40.19 35.3029 40.2051 35.2511 40.2153C35.1998 40.2256 35.148 40.2304 35.0957 40.2304Z" fill="url(#paint2_linear_1_215)"/>
<path d="M6.38134 13.8745C6.329 13.8745 6.27665 13.8697 6.22538 13.8594C6.17412 13.8491 6.12447 13.834 6.0759 13.8141C6.02733 13.7941 5.98146 13.7693 5.93775 13.7407C5.89458 13.7115 5.85411 13.6786 5.81687 13.6414C5.78017 13.6047 5.74725 13.5642 5.71811 13.521C5.68897 13.4773 5.66415 13.4315 5.64418 13.3834C5.62421 13.3349 5.6091 13.2852 5.59885 13.2339C5.5886 13.1827 5.58374 13.1309 5.58374 13.0791V2.82949C5.58374 2.77715 5.5886 2.72534 5.59885 2.67407C5.6091 2.62281 5.62421 2.57316 5.64418 2.52459C5.66415 2.47656 5.68897 2.43069 5.71811 2.38698C5.74725 2.34381 5.78017 2.30333 5.81687 2.26664C5.85411 2.22994 5.89458 2.19648 5.93775 2.16788C5.98146 2.13874 6.02733 2.11392 6.0759 2.09395C6.12447 2.07398 6.17412 2.05887 6.22538 2.04862C6.27665 2.0389 6.329 2.03351 6.38134 2.03351H11.167C11.2193 2.03351 11.2711 2.0389 11.3224 2.04862C11.3742 2.05887 11.4238 2.07398 11.4724 2.09395C11.5204 2.11392 11.5663 2.13874 11.61 2.16788C11.6537 2.19648 11.6942 2.22994 11.7309 2.26664C11.7681 2.30333 11.801 2.34381 11.8302 2.38698C11.8593 2.43069 11.8836 2.47656 11.9041 2.52459C11.9241 2.57316 11.9392 2.62281 11.9495 2.67407C11.9597 2.72534 11.9646 2.77715 11.9646 2.82949V8.9011C11.9646 8.95344 11.9597 9.00525 11.9495 9.05651C11.9392 9.10778 11.9241 9.15743 11.9041 9.20546C11.8836 9.25403 11.8593 9.2999 11.8302 9.34307C11.801 9.38678 11.7681 9.42671 11.7309 9.46395C11.6942 9.50065 11.6537 9.53357 11.61 9.56271C11.5663 9.59185 11.5204 9.61613 11.4724 9.6361C11.4238 9.65607 11.3742 9.67118 11.3224 9.68143C11.2711 9.69168 11.2193 9.69708 11.167 9.69708C11.1146 9.69708 11.0628 9.69168 11.0115 9.68143C10.9597 9.67118 10.9101 9.65607 10.8615 9.6361C10.8135 9.61613 10.7676 9.59185 10.7239 9.56271C10.6802 9.53357 10.6397 9.50065 10.603 9.46395C10.5658 9.42671 10.5329 9.38678 10.5037 9.34307C10.4746 9.2999 10.4503 9.25403 10.4298 9.20546C10.4098 9.15743 10.3947 9.10778 10.3845 9.05651C10.3742 9.00525 10.3694 8.95344 10.3694 8.9011V3.62494H7.17895V13.0791C7.17895 13.1309 7.17355 13.1827 7.1633 13.2339C7.15304 13.2852 7.13793 13.3349 7.11797 13.3834C7.098 13.4315 7.07317 13.4773 7.04457 13.521C7.01543 13.5642 6.98197 13.6047 6.94528 13.6414C6.90804 13.6786 6.86757 13.7115 6.8244 13.7407C6.78068 13.7693 6.73481 13.7941 6.68625 13.8141C6.63822 13.834 6.58803 13.8491 6.53676 13.8594C6.4855 13.8697 6.43369 13.8745 6.38134 13.8745Z" fill="url(#paint3_linear_1_215)"/>
<defs>
<linearGradient id="paint0_linear_1_215" x1="11.6117" y1="25.441" x2="33.7243" y2="40.7905" gradientUnits="userSpaceOnUse">
<stop stop-color="#003A92"/>
<stop offset="1" stop-color="#74A0E3"/>
</linearGradient>
<linearGradient id="paint1_linear_1_215" x1="-3.19577" y1="2.3344" x2="11.288" y2="35.6291" gradientUnits="userSpaceOnUse">
<stop stop-color="#003A92"/>
<stop offset="1" stop-color="#74A0E3"/>
</linearGradient>
<linearGradient id="paint2_linear_1_215" x1="1.4309" y1="19.5394" x2="24.7145" y2="53.4999" gradientUnits="userSpaceOnUse">
<stop stop-color="#003A92"/>
<stop offset="1" stop-color="#74A0E3"/>
</linearGradient>
<linearGradient id="paint3_linear_1_215" x1="5.07244" y1="3.25779" x2="16.0782" y2="9.51449" gradientUnits="userSpaceOnUse">
<stop stop-color="#003A92"/>
<stop offset="1" stop-color="#74A0E3"/>
</linearGradient>
</defs>
</svg>
