<svg width="47" height="46" viewBox="0 0 47 46" fill="none" xmlns="http://www.w3.org/2000/svg">
<path d="M18.4239 7.65788L39.2633 28.4611L44.1248 23.6074L23.286 2.80466L18.4239 7.65788ZM39.2633 31.238C38.9574 31.238 38.6649 31.1164 38.4485 30.9011L15.9801 8.47101C15.7636 8.2551 15.6421 7.9626 15.6421 7.65788C15.6421 7.35261 15.7636 7.06011 15.9801 6.8442L22.4712 0.364172C22.9214 -0.084851 23.6507 -0.084851 24.1008 0.364172L46.5692 22.7942C47.0193 23.2433 47.0193 23.9715 46.5692 24.421L40.078 30.9011C39.8621 31.1164 39.5691 31.238 39.2633 31.238Z" fill="url(#paint0_linear_1_127)"/>
<path d="M38.4173 37.4882C38.2508 37.4882 38.0827 37.4527 37.9256 37.3783L19.7216 28.7925L16.9386 31.5704C16.4879 32.0194 15.7592 32.0194 15.309 31.5704C14.8589 31.1214 14.8589 30.3932 15.309 29.9436L18.6659 26.5929C19.01 26.2499 19.5328 26.1588 19.9724 26.3664L38.1765 34.9523L43.5869 29.5507L41.6943 27.6613C41.2441 27.2117 41.2441 26.4835 41.6943 26.0345C42.1439 25.5849 42.8737 25.5849 43.3233 26.0345L46.0319 28.7375C46.4814 29.1866 46.4814 29.9148 46.0319 30.3638L39.2321 37.1519C39.0112 37.3722 38.7165 37.4882 38.4173 37.4882Z" fill="url(#paint1_linear_1_127)"/>
<path d="M3.68871 41.1986L5.66408 43.1707L16.2963 32.5567L14.321 30.5847L3.68871 41.1986ZM5.66408 45.9475C5.35826 45.9475 5.0652 45.8265 4.84929 45.6106L1.24434 42.0118C0.794205 41.5627 0.794205 40.8345 1.24434 40.385L13.5062 28.1448C13.7221 27.9289 14.0151 27.8073 14.321 27.8073C14.6262 27.8073 14.9193 27.9289 15.1357 28.1448L18.7413 31.7431C19.1908 32.1926 19.1908 32.9208 18.7413 33.3699L6.47887 45.6112C6.26241 45.8265 5.96935 45.9475 5.66408 45.9475Z" fill="url(#paint2_linear_1_127)"/>
<path d="M18.4861 7.11952C18.1803 7.11952 17.8873 6.99852 17.6714 6.78261L16.745 5.85737C16.5285 5.64146 16.407 5.34896 16.407 5.04369C16.407 4.73898 16.5285 4.44647 16.745 4.23057L19.8526 1.12792C20.0685 0.912013 20.3616 0.791016 20.6674 0.791016C20.6674 0.791016 20.6674 0.791016 20.668 0.791016C20.9733 0.791016 21.2663 0.912013 21.4828 1.12792L22.4091 2.05316C22.8587 2.50219 22.8587 3.23039 22.4091 3.67997L19.3015 6.78261C19.085 6.99852 18.792 7.11952 18.4861 7.11952Z" fill="url(#paint3_linear_1_127)"/>
<defs>
<linearGradient id="paint0_linear_1_127" x1="13.1368" y1="3.25437" x2="46.8451" y2="38.877" gradientUnits="userSpaceOnUse">
<stop stop-color="#003A92"/>
<stop offset="1" stop-color="#74A0E3"/>
</linearGradient>
<linearGradient id="paint1_linear_1_127" x1="12.4555" y1="26.9164" x2="20.5144" y2="49.5556" gradientUnits="userSpaceOnUse">
<stop stop-color="#003A92"/>
<stop offset="1" stop-color="#74A0E3"/>
</linearGradient>
<linearGradient id="paint2_linear_1_127" x1="-0.549382" y1="29.6829" x2="19.0426" y2="50.3875" gradientUnits="userSpaceOnUse">
<stop stop-color="#003A92"/>
<stop offset="1" stop-color="#74A0E3"/>
</linearGradient>
<linearGradient id="paint3_linear_1_127" x1="15.899" y1="1.44534" x2="22.734" y2="8.66831" gradientUnits="userSpaceOnUse">
<stop stop-color="#003A92"/>
<stop offset="1" stop-color="#74A0E3"/>
</linearGradient>
</defs>
</svg>
